<?xml version="1.0" encoding="utf-8"?>
<!-- Generator: Adobe Illustrator 27.4.1, SVG Export Plug-In . SVG Version: 6.00 Build 0)  -->
<svg version="1.1" id="Layer_1" xmlns="http://www.w3.org/2000/svg" xmlns:xlink="http://www.w3.org/1999/xlink" x="0px" y="0px"
	 viewBox="0 0 77 80" style="enable-background:new 0 0 77 80;" xml:space="preserve">
<style type="text/css">
	.st0{fill:#82DECF;}
</style>
<g id="Vector_Smart_Object" transform="translate(-108 -2329)">
	<g id="Vector_Smart_Object-2" transform="translate(108 2329)">
		<g id="Group_98">
			<g>
				<g id="Group_97">
					<path id="Path_162" class="st0" d="M47.2,11.2c0.5-0.6,0.5-1.4,0-2c-2.3-2.4-5.5-3.7-8.8-3.6C35.2,5.7,32,7,29.7,9.2
						c-0.6,0.5-0.6,1.3-0.1,1.9c0,0,0.1,0.1,0.1,0.1c0.5,0.5,1.3,0.6,1.9,0.1c0,0,0.1-0.1,0.1-0.1c3.7-3.7,9.8-3.7,13.5,0
						C45.7,11.7,46.6,11.7,47.2,11.2"/>
					<path id="Path_163" class="st0" d="M33.6,13c-0.6,0.5-0.6,1.3-0.1,1.9c0,0,0.1,0.1,0.1,0.1c0.5,0.5,1.3,0.6,1.9,0.1
						c0,0,0.1-0.1,0.1-0.1c0.8-0.8,1.9-1.2,3-1.2c1.1,0,2.2,0.4,3,1.2c0.5,0.5,1.3,0.6,1.9,0.1c0,0,0.1-0.1,0.1-0.1
						c0.6-0.5,0.6-1.3,0.1-1.9c0,0-0.1-0.1-0.1-0.1c-1.3-1.3-3-2-4.8-2C36.9,10.9,35,11.7,33.6,13"/>
					<path id="Path_164" class="st0" d="M27.7,7.2c2.9-2.8,6.7-4.4,10.7-4.4c4,0,7.9,1.6,10.7,4.4c0.5,0.5,1.3,0.6,1.9,0.1
						c0,0,0.1-0.1,0.1-0.1c0.6-0.5,0.6-1.3,0.1-1.9c0,0-0.1-0.1-0.1-0.1C47.8,1.8,43.2,0,38.4,0c-4.7-0.1-9.3,1.8-12.5,5.2
						c-0.6,0.5-0.6,1.3-0.1,1.9c0,0,0.1,0.1,0.1,0.1c0.4,0.5,1.1,0.6,1.6,0.2C27.5,7.4,27.6,7.3,27.7,7.2"/>
					<path id="Path_165" class="st0" d="M67.3,29h1.4v2.8H50.4L50,29h11.7c0.4,0,0.7-0.1,1-0.4c0.2-0.3,0.4-0.6,0.4-1v-1.4h2.8v1.4
						c0,0.4,0.2,0.7,0.4,1C66.5,28.9,66.9,29,67.3,29 M29.1,34.4l1-8.2h16.7l1,8.2H29.1z M41.2,42.6h-5.6v-5.4h5.6L41.2,42.6z
						 M8.2,31.8V29h1.4c0.4,0,0.7-0.1,1-0.4c0.2-0.3,0.4-0.6,0.4-1v-1.4h2.8v1.4c0,0.4,0.2,0.7,0.4,1c0.3,0.3,0.6,0.4,1,0.4h11.7
						l-0.4,2.8H8.2z M75.4,15.2H53.5c-0.8,0-1.4,0.6-1.4,1.4s0.6,1.4,1.4,1.4h9.5v5.6h-1.4c-0.8,0-1.4,0.6-1.4,1.3c0,0,0,0,0,0.1
						v1.4H49.6l-0.2-1.6c-0.1-0.7-0.7-1.2-1.4-1.2H28.7c-0.7,0-1.3,0.5-1.4,1.2l-0.2,1.6H16.5V25c0-0.4-0.2-0.7-0.4-1
						c-0.3-0.3-0.6-0.4-1-0.4h-1.4V18h9.5c0.8,0,1.4-0.6,1.4-1.4s-0.6-1.4-1.4-1.4H1.4c-0.8,0-1.4,0.6-1.4,1.4S0.6,18,1.4,18H11v5.6
						H9.6c-0.8,0-1.4,0.6-1.4,1.3c0,0,0,0,0,0.1v1.4H6.8c-0.8,0-1.4,0.6-1.4,1.3c0,0,0,0,0,0.1v5.6c0,0.4,0.2,0.7,0.4,1
						c0.3,0.3,0.6,0.4,1,0.4h19.3V35c-1.3,0.3-2.4,1-3.2,2c-0.7,0.8-1,1.9-1,3v4c0,0.8,0.6,1.4,1.4,1.4s1.4-0.6,1.4-1.4c0,0,0,0,0,0
						v-4c0-0.8,0.3-1.5,0.8-2c0.5-0.5,1.2-0.8,2-0.8h5.6V44c0,0.4,0.2,0.7,0.4,1c0.3,0.3,0.6,0.4,1,0.4h8.2c0.4,0,0.7-0.1,1-0.4
						c0.2-0.3,0.4-0.6,0.4-1v-6.8h5.6c0.7,0,1.5,0.3,2,0.8c0.5,0.5,0.8,1.2,0.8,2v4c0,0.8,0.6,1.4,1.4,1.4s1.4-0.6,1.4-1.4
						c0,0,0,0,0,0v-4c0-1.2-0.4-2.4-1.2-3.4c-0.8-1-1.8-1.6-3-2v-0.2h19.3c0.4,0,0.7-0.1,1-0.4c0.2-0.3,0.4-0.6,0.4-1v-5.6
						c0-0.4-0.2-0.7-0.4-1c-0.3-0.3-0.6-0.4-1-0.4h-1.4v-1.4c0-0.4-0.2-0.7-0.4-1c-0.3-0.3-0.6-0.4-1-0.4h-1.4V18h9.6
						c0.8,0,1.4-0.6,1.4-1.3c0,0,0,0,0-0.1C76.9,15.8,76.2,15.2,75.4,15.2"/>
					<path id="Path_166" class="st0" d="M41.4,71c-1,1.6-2.8,2.6-4.8,2.6c-0.4-1.8-0.2-3.6,0.8-5.2c1.9-2.8,4.4-5.1,7.4-6.8
						C44.6,65,43.4,68.3,41.4,71 M33.2,62.4c-1.1-2.7-1.5-5.5-1.4-8.4c2.1,1.9,3.7,4.2,4.8,6.8c0.6,1.4,0.4,3.1-0.4,4.4
						C34.9,64.8,33.7,63.7,33.2,62.4 M47.8,59.2c0-0.4-0.2-0.8-0.6-1C46.8,58,46.4,58,46,58c-2.3,0.9-4.4,2.2-6.2,3.8
						c0-0.6-0.2-1.2-0.4-1.8c-1.6-3.9-4.3-7.2-7.8-9.6c-0.4-0.2-0.8-0.2-1.2,0c-0.4,0.2-0.6,0.4-0.8,0.8c-0.9,4.1-0.5,8.4,1.2,12.2
						c0.8,1.9,2.2,3.5,4,4.4c-1,1.8-1.2,3.8-0.8,5.8c0,0.5,0.2,1,0.4,1.4v3.6c0,0.8,0.6,1.4,1.4,1.4c0.8,0,1.4-0.6,1.4-1.4
						c0,0,0,0,0,0v-2.4c0.4,0,0.8,0,1.2-0.2c2.2-0.4,4.1-1.7,5.4-3.6C46.4,68.5,47.8,63.9,47.8,59.2"/>
					<path id="Path_167" class="st0" d="M67.5,71L67.5,71c-1,1.6-2.8,2.6-4.8,2.6c-0.4-1.8-0.2-3.6,0.8-5.2c1.9-2.8,4.4-5.1,7.4-6.8
						C70.6,65,69.5,68.3,67.5,71 M59.3,62.4c-1.1-2.7-1.5-5.5-1.4-8.4c2.1,1.9,3.7,4.2,4.8,6.8c0.6,1.4,0.4,3.1-0.4,4.4
						C60.9,64.8,59.8,63.7,59.3,62.4 M73.8,59.2c0-0.4-0.2-0.8-0.6-1C72.9,58,72.4,58,72,58c-2.3,0.9-4.4,2.2-6.2,3.8
						c0-0.6-0.2-1.2-0.4-1.8c-1.6-3.9-4.3-7.2-7.8-9.6c-0.4-0.2-0.8-0.2-1.2,0c-0.4,0.2-0.6,0.4-0.8,0.8c-0.9,4.1-0.5,8.4,1.2,12.2
						c0.8,1.9,2.2,3.5,4,4.4c-1,1.8-1.2,3.8-0.8,5.8c0,0.5,0.2,1,0.4,1.4v3.6c0,0.8,0.6,1.4,1.4,1.4c0.8,0,1.4-0.6,1.4-1.4
						c0,0,0,0,0,0v-2.4c0.4,0,0.8,0,1.2-0.2c2.2-0.4,4.1-1.7,5.4-3.6C72.5,68.5,73.8,63.9,73.8,59.2"/>
					<path id="Path_168" class="st0" d="M15.3,71c-1,1.6-2.8,2.6-4.8,2.6c-0.4-1.8-0.2-3.6,0.8-5.2c1.9-2.8,4.4-5.1,7.4-6.8
						C18.5,65,17.3,68.3,15.3,71 M7.2,62.4c-1.1-2.7-1.5-5.5-1.4-8.4c2.1,1.9,3.7,4.2,4.8,6.8c0.6,1.4,0.4,3.1-0.4,4.4
						C8.8,64.8,7.7,63.7,7.2,62.4 M21.7,59.2c0-0.4-0.2-0.8-0.6-1c-0.3-0.3-0.8-0.3-1.2-0.2c-2.3,0.9-4.4,2.2-6.2,3.8
						c0-0.6-0.2-1.2-0.4-1.8c-1.6-3.9-4.3-7.2-7.8-9.6c-0.4-0.2-0.8-0.2-1.2,0c-0.4,0.2-0.6,0.4-0.8,0.8c-0.9,4.1-0.5,8.4,1.2,12.2
						c0.8,1.9,2.2,3.5,4,4.4C7.6,70,7.4,72.7,8.4,75v3.6C8.4,79.4,9,80,9.8,80c0.8,0,1.4-0.6,1.4-1.4v-2.4c2.8,0,5.3-1.5,6.8-3.8
						C20.4,68.5,21.7,63.9,21.7,59.2"/>
				</g>
			</g>
		</g>
	</g>
	<path id="Color_Overlay" class="st0" d="M168.5,2407.6v-3.6c-0.2-0.4-0.4-0.9-0.4-1.4c-0.4-2-0.2-4,0.8-5.8c-1.8-0.9-3.2-2.5-4-4.4
		c-1.7-3.8-2.1-8.1-1.2-12.2c0.2-0.4,0.4-0.6,0.8-0.8c0.4-0.2,0.8-0.2,1.2,0c3.5,2.4,6.2,5.7,7.8,9.6c0.2,0.6,0.4,1.2,0.4,1.8
		c1.8-1.6,3.9-2.9,6.2-3.8c0.4,0,0.8,0,1.2,0.2c0.4,0.2,0.6,0.6,0.6,1c0,4.7-1.4,9.3-4,13.2c-1.2,1.9-3.2,3.2-5.4,3.6
		c-0.4,0.2-0.8,0.2-1.2,0.2v2.4c0,0.8-0.6,1.4-1.4,1.4S168.5,2408.4,168.5,2407.6C168.5,2407.6,168.5,2407.6,168.5,2407.6
		L168.5,2407.6z M171.5,2397.4c-1,1.6-1.2,3.4-0.8,5.2c1.9,0,3.7-1,4.8-2.6c2-2.8,3.2-6,3.4-9.4
		C175.9,2392.3,173.4,2394.6,171.5,2397.4L171.5,2397.4z M167.3,2391.4c0.5,1.3,1.6,2.4,3,2.8c0.8-1.3,1-3,0.4-4.4
		c-1-2.6-2.7-4.9-4.8-6.8C165.8,2385.9,166.2,2388.7,167.3,2391.4L167.3,2391.4z M142.4,2407.6v-3.6c-0.2-0.4-0.4-0.9-0.4-1.4
		c-0.4-2-0.2-4,0.8-5.8c-1.8-0.9-3.2-2.5-4-4.4c-1.7-3.8-2.1-8.1-1.2-12.2c0.2-0.4,0.4-0.6,0.8-0.8c0.4-0.2,0.8-0.2,1.2,0
		c3.5,2.4,6.2,5.7,7.8,9.6c0.2,0.6,0.4,1.2,0.4,1.8c1.8-1.6,3.9-2.9,6.2-3.8c0.4,0,0.8,0,1.2,0.2c0.4,0.2,0.6,0.6,0.6,1
		c0,4.7-1.4,9.3-4,13.2c-1.2,1.9-3.2,3.2-5.4,3.6c-0.4,0.2-0.8,0.2-1.2,0.2v2.4c0,0.8-0.6,1.4-1.4,1.4
		C143.1,2409,142.4,2408.4,142.4,2407.6C142.4,2407.6,142.4,2407.6,142.4,2407.6L142.4,2407.6z M145.4,2397.4
		c-1,1.6-1.2,3.4-0.8,5.2c1.9,0,3.7-1,4.8-2.6c2-2.8,3.2-6,3.4-9.4C149.8,2392.3,147.3,2394.6,145.4,2397.4L145.4,2397.4z
		 M141.2,2391.4c0.5,1.3,1.6,2.4,3,2.8c0.8-1.3,1-3,0.4-4.4c-1-2.6-2.7-4.9-4.8-6.8C139.7,2385.9,140.2,2388.7,141.2,2391.4
		L141.2,2391.4z M116.4,2407.6v-3.6c-1-2.3-0.8-5,0.4-7.2c-1.8-0.9-3.2-2.5-4-4.4c-1.7-3.8-2.1-8.1-1.2-12.2
		c0.2-0.4,0.4-0.6,0.8-0.8c0.4-0.2,0.8-0.2,1.2,0c3.5,2.4,6.2,5.7,7.8,9.6c0.2,0.6,0.4,1.2,0.4,1.8c1.8-1.6,3.9-2.9,6.2-3.8
		c0.4-0.1,0.9-0.1,1.2,0.2c0.4,0.2,0.6,0.6,0.6,1c0,4.7-1.3,9.3-3.8,13.2c-1.4,2.3-4,3.8-6.8,3.8v2.4c0,0.8-0.6,1.4-1.4,1.4
		C117,2409.1,116.4,2408.4,116.4,2407.6C116.4,2407.7,116.4,2407.6,116.4,2407.6L116.4,2407.6z M119.4,2397.4
		c-1,1.6-1.2,3.4-0.8,5.2c1.9,0,3.7-1,4.8-2.6c2-2.8,3.2-6,3.4-9.4C123.8,2392.3,121.2,2394.6,119.4,2397.4L119.4,2397.4z
		 M115.2,2391.4c0.5,1.3,1.6,2.4,3,2.8c0.8-1.3,1-3,0.4-4.4c-1-2.6-2.7-4.9-4.8-6.8C113.6,2385.9,114.1,2388.7,115.2,2391.4
		L115.2,2391.4z M160.3,2373v-4c0-0.8-0.3-1.5-0.8-2c-0.5-0.5-1.2-0.8-2-0.8H152v6.8c0,0.4-0.2,0.7-0.4,1c-0.3,0.2-0.6,0.4-1,0.4
		h-8.2c-0.8,0-1.4-0.6-1.4-1.3c0,0,0,0,0-0.1v-6.8h-5.6c-1.5,0-2.8,1.2-2.8,2.7c0,0,0,0.1,0,0.1v4c0,0.8-0.6,1.4-1.4,1.4
		c-0.8,0-1.4-0.6-1.4-1.4c0,0,0,0,0,0v-4c0-1.1,0.3-2.2,1-3c0.8-1,1.9-1.7,3.2-2v-0.2h-19.3c-0.8,0-1.4-0.6-1.4-1.3c0,0,0,0,0-0.1
		v-5.6c0-0.8,0.6-1.4,1.3-1.4c0,0,0,0,0.1,0h1.4v-1.4c0-0.8,0.6-1.4,1.3-1.4c0,0,0,0,0.1,0h1.4v-5.6h-9.6c-0.8,0-1.4-0.6-1.4-1.4
		c0-0.8,0.6-1.4,1.4-1.4l0,0h21.9c0.8,0,1.4,0.6,1.4,1.4c0,0.8-0.6,1.4-1.4,1.4h-9.6v5.6h1.4c0.4,0,0.7,0.1,1,0.4
		c0.3,0.3,0.4,0.6,0.4,1v1.4h10.5l0.2-1.6c0.1-0.7,0.7-1.2,1.4-1.2H156c0.7,0,1.3,0.5,1.4,1.2l0.2,1.6h10.7v-1.4
		c0-0.8,0.6-1.4,1.3-1.4c0,0,0,0,0.1,0h1.4v-5.6h-9.6c-0.8,0-1.4-0.6-1.4-1.4c0-0.8,0.6-1.4,1.4-1.4h21.9c0.8,0,1.5,0.6,1.6,1.4
		c0,0.8-0.6,1.4-1.3,1.4c0,0,0,0-0.1,0h-9.6v5.2h1.4c0.4,0,0.7,0.1,1,0.4c0.2,0.3,0.4,0.6,0.4,1v1.4h1.4c0.4,0,0.7,0.2,1,0.4
		c0.2,0.3,0.4,0.6,0.4,1v5.6c0,0.4-0.2,0.7-0.4,1c-0.3,0.2-0.6,0.4-1,0.4h-19.3v0.2c1.2,0.4,2.2,1,3,2c0.8,1,1.2,2.2,1.2,3.4v4
		c0,0.8-0.6,1.4-1.4,1.4C161,2374.5,160.4,2373.8,160.3,2373C160.3,2373.1,160.3,2373,160.3,2373L160.3,2373z M143.6,2371.6h5.6
		v-5.4h-5.6V2371.6z M137.1,2363.4h18.7l-1-8.2h-16.7L137.1,2363.4z M158.4,2360.8h18.3v-2.8h-1.4c-0.4,0-0.7-0.1-1-0.4
		c-0.2-0.3-0.4-0.6-0.4-1v-1.4h-2.8v1.4c0,0.4-0.2,0.7-0.4,1c-0.3,0.3-0.6,0.4-1,0.4H158L158.4,2360.8z M116.2,2360.8h18.3l0.4-2.8
		h-11.7c-0.4,0-0.7-0.1-1-0.4c-0.2-0.3-0.4-0.6-0.4-1v-1.4H119v1.4c0,0.4-0.2,0.7-0.4,1c-0.3,0.2-0.6,0.4-1,0.4h-1.4L116.2,2360.8z
		 M149.6,2344c-0.8-0.8-1.9-1.2-3-1.2c-1.1,0-2.2,0.4-3,1.2c-0.5,0.5-1.3,0.6-1.9,0.1c0,0-0.1-0.1-0.1-0.1c-0.6-0.5-0.6-1.3-0.1-1.9
		c0,0,0.1-0.1,0.1-0.1c1.4-1.3,3.3-2.1,5.2-2c1.8,0,3.5,0.7,4.8,2c0.6,0.5,0.6,1.3,0.1,1.9c0,0-0.1,0.1-0.1,0.1
		c-0.5,0.5-1.3,0.6-1.9,0.1C149.7,2344.1,149.6,2344,149.6,2344z M137.7,2340.2c-0.6-0.5-0.6-1.3-0.1-1.9c0,0,0.1-0.1,0.1-0.1
		c2.4-2.2,5.5-3.5,8.8-3.6c3.3-0.1,6.5,1.2,8.8,3.6c0.5,0.6,0.5,1.4,0,2c-0.6,0.5-1.4,0.5-2,0c-3.7-3.7-9.8-3.7-13.5,0
		c-0.5,0.5-1.3,0.6-1.9,0.1C137.7,2340.3,137.7,2340.2,137.7,2340.2L137.7,2340.2z M157.2,2336.2c-2.9-2.8-6.7-4.4-10.7-4.4
		c-4,0-7.9,1.6-10.7,4.4c-0.4,0.5-1.1,0.6-1.6,0.2c-0.1-0.1-0.2-0.1-0.2-0.2c-0.6-0.5-0.6-1.3-0.1-1.9c0,0,0.1-0.1,0.1-0.1
		c3.3-3.4,7.8-5.3,12.5-5.2c4.8,0,9.4,1.8,12.7,5.2c0.6,0.5,0.6,1.3,0.1,1.9c0,0-0.1,0.1-0.1,0.1c-0.5,0.5-1.3,0.6-1.9,0.1
		C157.2,2336.3,157.2,2336.2,157.2,2336.2L157.2,2336.2z"/>
</g>
</svg>
