<svg xmlns="http://www.w3.org/2000/svg" xmlns:xlink="http://www.w3.org/1999/xlink" width="219" height="38" viewBox="0 0 219 38">
  <defs>
    <clipPath id="clip-path">
      <rect id="Rectangle_282" data-name="Rectangle 282" width="219" height="38" transform="translate(0 0)" fill="none"/>
    </clipPath>
  </defs>
  <g id="Logo" transform="translate(0 0)">
    <g id="Group_383" data-name="Group 383">
      <g id="Group_382" data-name="Group 382" clip-path="url(#clip-path)">
        <path id="Path_4500" data-name="Path 4500" d="M57.026,28.1a10.288,10.288,0,0,1-4.356-.858,8.54,8.54,0,0,1-3.036-2.271,9.7,9.7,0,0,1-1.767-3.183,11.426,11.426,0,0,1-.589-3.63V17.48a11.537,11.537,0,0,1,.589-3.665,9.7,9.7,0,0,1,1.767-3.183,8.491,8.491,0,0,1,2.982-2.253,9.846,9.846,0,0,1,4.2-.84A9.252,9.252,0,0,1,61.989,8.9,8.6,8.6,0,0,1,65.1,12.42a10.673,10.673,0,0,1,1.036,4.667v1.68H49.064V15.942H63.31l-1.143,1.43a8.432,8.432,0,0,0-.607-3.344,4.788,4.788,0,0,0-1.785-2.182,6.074,6.074,0,0,0-6.07.09,5.1,5.1,0,0,0-1.857,2.36,9.411,9.411,0,0,0-.607,3.54,9.229,9.229,0,0,0,.607,3.451,5.117,5.117,0,0,0,1.892,2.4,6.6,6.6,0,0,0,6.57,0,3.526,3.526,0,0,0,1.571-2.056h3.892a7.737,7.737,0,0,1-1.589,3.433,7.832,7.832,0,0,1-3.017,2.253,10.353,10.353,0,0,1-4.142.787"/>
        <path id="Path_4501" data-name="Path 4501" d="M77.65,28.1a10.268,10.268,0,0,1-4.3-.84,8.371,8.371,0,0,1-3.034-2.289,9.935,9.935,0,0,1-1.786-3.219,11.3,11.3,0,0,1-.589-3.594v-.644a11.2,11.2,0,0,1,.607-3.665,9.819,9.819,0,0,1,1.821-3.2,8.74,8.74,0,0,1,3.017-2.271,9.938,9.938,0,0,1,4.231-.84,10.1,10.1,0,0,1,4.409.93A7.834,7.834,0,0,1,85.147,11.1a7.64,7.64,0,0,1,1.321,3.951H82.434a4.332,4.332,0,0,0-1.446-2.718,4.862,4.862,0,0,0-3.375-1.108,4.911,4.911,0,0,0-4.892,3.2,8.966,8.966,0,0,0-.607,3.415A9.131,9.131,0,0,0,72.7,21.2a5.041,5.041,0,0,0,1.821,2.361,5.341,5.341,0,0,0,3.125.858,5.647,5.647,0,0,0,2.517-.519,4.55,4.55,0,0,0,1.7-1.395,3.968,3.968,0,0,0,.75-2.021h4.07a7.341,7.341,0,0,1-1.321,4.023,8.156,8.156,0,0,1-3.213,2.646,10.387,10.387,0,0,1-4.5.948"/>
        <path id="Path_4502" data-name="Path 4502" d="M98.608,28.1a11.088,11.088,0,0,1-4.464-.84A9.8,9.8,0,0,1,90.9,25.025a9.5,9.5,0,0,1-2-3.165,10.158,10.158,0,0,1-.678-3.666V17.48a10.065,10.065,0,0,1,.7-3.683,9.773,9.773,0,0,1,2.035-3.2,9.673,9.673,0,0,1,3.267-2.235,11.1,11.1,0,0,1,4.392-.822,10.973,10.973,0,0,1,4.374.822,9.922,9.922,0,0,1,3.267,2.235,9.622,9.622,0,0,1,2.053,3.2,10.066,10.066,0,0,1,.7,3.683v.715a10.158,10.158,0,0,1-.679,3.666,9.515,9.515,0,0,1-2,3.165,9.8,9.8,0,0,1-3.249,2.235,11.089,11.089,0,0,1-4.463.84m0-3.648a6.176,6.176,0,0,0,3.356-.876,5.7,5.7,0,0,0,2.124-2.378,7.571,7.571,0,0,0,.732-3.361,7.5,7.5,0,0,0-.75-3.4,5.83,5.83,0,0,0-2.142-2.378,6.728,6.728,0,0,0-6.641,0,5.827,5.827,0,0,0-2.142,2.378,7.5,7.5,0,0,0-.75,3.4,7.571,7.571,0,0,0,.732,3.361,5.7,5.7,0,0,0,2.125,2.378,6.172,6.172,0,0,0,3.356.876"/>
        <path id="Path_4503" data-name="Path 4503" d="M118.813,28.1a9.8,9.8,0,0,1-6.052-1.645,5.674,5.674,0,0,1-2.267-4.541h3.856a2.845,2.845,0,0,0,1.107,1.967,5.162,5.162,0,0,0,3.392.894,5.469,5.469,0,0,0,3.142-.787,2.325,2.325,0,0,0,1.143-1.967,2.009,2.009,0,0,0-.839-1.7,5.991,5.991,0,0,0-2.839-.84l-1.892-.179a8.679,8.679,0,0,1-4.7-1.752,4.745,4.745,0,0,1-1.732-3.862,5.375,5.375,0,0,1,.964-3.254A6.168,6.168,0,0,1,114.76,8.4a9.994,9.994,0,0,1,3.91-.715A9.25,9.25,0,0,1,124.2,9.2a5.316,5.316,0,0,1,2.178,4.452h-3.821a2.492,2.492,0,0,0-1.035-1.859,4.592,4.592,0,0,0-2.857-.751,4.468,4.468,0,0,0-2.731.715,2.2,2.2,0,0,0-.947,1.824,1.906,1.906,0,0,0,.714,1.574,4.562,4.562,0,0,0,2.321.751l1.892.179a10.268,10.268,0,0,1,5.16,1.806,4.765,4.765,0,0,1,1.91,4.023,5.31,5.31,0,0,1-1.036,3.254,6.693,6.693,0,0,1-2.874,2.164,11,11,0,0,1-4.267.769"/>
        <path id="Path_4504" data-name="Path 4504" d="M133.7,27.028,127.168,8.182h4.249l6.249,18.846ZM128.811,35V31.32h3.178a5.882,5.882,0,0,0,1.892-.268,2.651,2.651,0,0,0,1.286-.93,5.462,5.462,0,0,0,.821-1.771l5.606-20.169h4.034l-6.069,21.171a9.052,9.052,0,0,1-1.589,3.254,5.861,5.861,0,0,1-2.571,1.824,10.833,10.833,0,0,1-3.732.572Zm5.927-11.372h4.142v3.4h-4.142Z"/>
        <path id="Path_4505" data-name="Path 4505" d="M154.318,28.1a9.8,9.8,0,0,1-6.052-1.645A5.674,5.674,0,0,1,146,21.915h3.856a2.847,2.847,0,0,0,1.107,1.967,5.163,5.163,0,0,0,3.392.894,5.472,5.472,0,0,0,3.142-.787,2.325,2.325,0,0,0,1.143-1.967,2.009,2.009,0,0,0-.839-1.7,5.989,5.989,0,0,0-2.839-.84l-1.892-.179a8.679,8.679,0,0,1-4.7-1.752,4.746,4.746,0,0,1-1.732-3.862,5.378,5.378,0,0,1,.964-3.254,6.171,6.171,0,0,1,2.66-2.039,9.994,9.994,0,0,1,3.91-.715,9.25,9.25,0,0,1,5.534,1.52,5.318,5.318,0,0,1,2.179,4.452h-3.821a2.492,2.492,0,0,0-1.035-1.859,4.59,4.59,0,0,0-2.857-.751,4.468,4.468,0,0,0-2.731.715,2.195,2.195,0,0,0-.946,1.824,1.9,1.9,0,0,0,.714,1.574,4.56,4.56,0,0,0,2.321.751l1.893.179a10.268,10.268,0,0,1,5.16,1.806,4.765,4.765,0,0,1,1.91,4.023,5.309,5.309,0,0,1-1.036,3.254,6.7,6.7,0,0,1-2.874,2.164,11,11,0,0,1-4.267.769"/>
        <path id="Path_4506" data-name="Path 4506" d="M163.152,8.612h13.425v3.112H163.152ZM173.685,28.1a11.106,11.106,0,0,1-4.035-.644,4.66,4.66,0,0,1-2.482-2.217,9.1,9.1,0,0,1-.839-4.256V3h3.964V21.343a3.124,3.124,0,0,0,.8,2.306,3.062,3.062,0,0,0,2.267.8h3.213V28.1Z"/>
        <path id="Path_4507" data-name="Path 4507" d="M178.9,28.1V8.826h3.321v8.3h-.393a13.927,13.927,0,0,1,.732-4.828,6.163,6.163,0,0,1,2.214-3,6.292,6.292,0,0,1,3.7-1.037h.179a6.358,6.358,0,0,1,3.731,1.037,6.166,6.166,0,0,1,2.214,3,13.926,13.926,0,0,1,.732,4.828h-1.143a13.62,13.62,0,0,1,.75-4.828,6.223,6.223,0,0,1,2.249-3,6.377,6.377,0,0,1,3.714-1.037h.178a6.443,6.443,0,0,1,3.749,1.037,6.223,6.223,0,0,1,2.249,3,13.62,13.62,0,0,1,.75,4.828V28.1h-4.177V16.515a4.773,4.773,0,0,0-1.053-3.291,3.7,3.7,0,0,0-2.91-1.18,3.984,3.984,0,0,0-3.071,1.234,4.832,4.832,0,0,0-1.143,3.415V28.1h-4.213V16.515a4.825,4.825,0,0,0-1.035-3.291,3.648,3.648,0,0,0-2.892-1.18,4.039,4.039,0,0,0-3.088,1.234,4.788,4.788,0,0,0-1.16,3.415V28.1Z"/>
        <path id="Path_4508" data-name="Path 4508" d="M211.557,24.373V24.1a3.722,3.722,0,1,1,7.444,0v.275a3.722,3.722,0,1,1-7.444,0" fill="#ff2b00"/>
        <path id="Path_4509" data-name="Path 4509" d="M27.091,27a2.979,2.979,0,0,1-2.977,2.982l-21.138,0a2.984,2.984,0,0,1,0-5.967H24.113A2.978,2.978,0,0,1,27.091,27" fill="#a91e23"/>
        <path id="Path_4510" data-name="Path 4510" d="M31.5,18.987a2.98,2.98,0,0,1-2.976,2.983l-25.545,0a2.981,2.981,0,0,1,0-5.963H28.524A2.979,2.979,0,0,1,31.5,18.987" fill="#d32027"/>
        <path id="Path_4511" data-name="Path 4511" d="M20.535,10.974a2.981,2.981,0,0,1-2.979,2.981H2.978a2.983,2.983,0,0,1,0-5.966H17.555a2.983,2.983,0,0,1,2.979,2.985" fill="#ec2024"/>
        <path id="Path_4512" data-name="Path 4512" d="M39.3,35.015A2.978,2.978,0,0,1,36.318,38L2.985,38a2.983,2.983,0,0,1,0-5.966H36.318A2.98,2.98,0,0,1,39.3,35.015" fill="#801517"/>
        <path id="Path_4513" data-name="Path 4513" d="M36.692,2.982a2.98,2.98,0,0,1-2.978,2.982H2.978A2.982,2.982,0,0,1,2.978,0H33.714a2.981,2.981,0,0,1,2.978,2.982" fill="#ed322a"/>
      </g>
    </g>
  </g>
</svg>
