<svg xmlns="http://www.w3.org/2000/svg" xmlns:xlink="http://www.w3.org/1999/xlink" width="80" height="80" viewBox="0 0 80 80">
  <defs>
    <clipPath id="clip-path">
      <rect id="Rectangle_69" data-name="Rectangle 69" width="79.999" height="80" fill="none"/>
    </clipPath>
  </defs>
  <g id="Vector_Smart_Object" data-name="Vector Smart Object" transform="translate(-750 -2329)">
    <g id="Vector_Smart_Object-2" data-name="Vector Smart Object" transform="translate(750 2329)">
      <g id="Group_110" data-name="Group 110">
        <g id="Group_109" data-name="Group 109" clip-path="url(#clip-path)">
          <path id="Path_232" data-name="Path 232" d="M29.062,12.254a1.305,1.305,0,0,1-.318-.038l-4.926-1.292a1.251,1.251,0,1,1,.624-2.414L29.374,9.8a1.25,1.25,0,0,1-.312,2.456"/>
          <path id="Path_233" data-name="Path 233" d="M20.624,77.5V65.462a5,5,0,0,0,3.494-3.276l4.7.464A5.007,5.007,0,0,0,32.5,66.712V77.5ZM6.251,72.338A5,5,0,0,0,10,67.5a4.877,4.877,0,0,0-.094-.964l5.626-2.7a5.015,5.015,0,0,0,2.574,1.626V77.5H6.251ZM2.5,67.5a2.5,2.5,0,1,1,.732,1.768A2.5,2.5,0,0,1,2.5,67.5m16.873-9.376a2.5,2.5,0,1,1-1.768.732,2.5,2.5,0,0,1,1.768-.732m14.375,1.25a2.5,2.5,0,1,1-1.768.732,2.507,2.507,0,0,1,1.768-.732m5,2.5a5,5,0,0,0-9.693-1.712l-4.77-.47a5,5,0,0,0-9.911.932,4.857,4.857,0,0,0,.094.962l-5.626,2.7a5,5,0,1,0-5.094,8.05V77.5H1.25a1.25,1.25,0,0,0,0,2.5H37.5a1.25,1.25,0,0,0,0-2.5H35V66.712a5,5,0,0,0,3.75-4.838"/>
          <path id="Path_234" data-name="Path 234" d="M47.5,73.75H58.747V77.5H47.5ZM58.747,40H47.5v-3.75H58.747ZM47.5,67.5H58.747v3.75H47.5ZM58.747,46.248H47.5V42.5H58.747ZM47.5,48.748H58.747V52.5H47.5Zm11.249,10H47.5V55H58.747Zm0,6.252H47.5V61.25H58.747ZM60,33.748H46.248A1.25,1.25,0,0,0,45,35V78.75A1.25,1.25,0,0,0,46.248,80H60a1.25,1.25,0,0,0,1.25-1.25V35A1.25,1.25,0,0,0,60,33.748"/>
          <path id="Path_235" data-name="Path 235" d="M41.249,50H2.5V12.5H8.749a1.25,1.25,0,0,0,0-2.5H1.25A1.25,1.25,0,0,0,0,11.246v40A1.25,1.25,0,0,0,1.25,52.5h40a1.25,1.25,0,0,0,0-2.5"/>
          <path id="Path_236" data-name="Path 236" d="M16.251,47.5a1.25,1.25,0,0,0,0-2.5h-7.5a1.25,1.25,0,0,0,0,2.5Z"/>
          <path id="Path_237" data-name="Path 237" d="M25.718,41.362,7.731,36.654,16.6,2.772,34.587,7.5Zm51.5-22.72-8.793,33.6-2.806-.706A1.252,1.252,0,1,0,65,53.956l4.032,1.006a1.164,1.164,0,0,0,.3.038,1.25,1.25,0,0,0,1.212-.932l9.419-36a1.252,1.252,0,0,0-.888-1.526L66.54,13.26a2.045,2.045,0,0,0-.194-.074l-.206-.032L16.025.042A1.25,1.25,0,0,0,14.5.93L5,37.23a1.253,1.253,0,0,0,.888,1.52l34.735,9.1a1.249,1.249,0,1,0,.624-2.418L28.124,41.994,37,8.124l27.5,7.194L60.7,29.786a1.251,1.251,0,0,0,.894,1.526,1.411,1.411,0,0,0,.318.038,1.25,1.25,0,0,0,1.206-.932l3.788-14.474Z"/>
          <path id="Path_238" data-name="Path 238" d="M11.655,33.33a1.249,1.249,0,0,0,.894,1.524L22.9,37.568a1.423,1.423,0,0,0,.318.036,1.25,1.25,0,0,0,.32-2.456L13.181,32.436a1.251,1.251,0,0,0-1.526.894"/>
          <path id="Path_239" data-name="Path 239" d="M66.248,73.75H77.5V77.5H66.248ZM77.5,65H66.248V61.25H77.5ZM66.248,67.5H77.5v3.75H66.248Zm12.5-8.75H65A1.25,1.25,0,0,0,63.749,60V78.75A1.25,1.25,0,0,0,65,80H78.747A1.25,1.25,0,0,0,80,78.75V60a1.25,1.25,0,0,0-1.25-1.25"/>
        </g>
      </g>
    </g>
    <path id="Color_Overlay" data-name="Color Overlay" d="M815,2409a1.249,1.249,0,0,1-1.25-1.25V2389a1.25,1.25,0,0,1,1.25-1.25h13.748A1.249,1.249,0,0,1,830,2389v18.75a1.251,1.251,0,0,1-1.25,1.25Zm1.249-2.5H827.5v-3.75H816.248Zm0-6.25H827.5v-3.75H816.248Zm0-6.25H827.5v-3.749H816.248Zm-20,15a1.25,1.25,0,0,1-1.25-1.25V2364a1.25,1.25,0,0,1,1.25-1.25H810a1.249,1.249,0,0,1,1.25,1.25v43.752A1.25,1.25,0,0,1,810,2409Zm1.25-2.5h11.248v-3.75H797.5Zm0-6.25h11.248v-3.75H797.5Zm0-6.25h11.248v-3.749H797.5Zm0-6.251h11.248V2384H797.5Zm0-6.251h11.248v-3.75H797.5Zm0-6.25h11.248v-3.75H797.5Zm0-6.25h11.248v-3.749H797.5Zm-46.248,40a1.25,1.25,0,1,1,0-2.5h2.5v-5.164a5,5,0,1,1,5.094-8.05l5.625-2.7a4.863,4.863,0,0,1-.094-.962,5,5,0,0,1,9.911-.932l4.77.471a5,5,0,1,1,5.944,6.549V2406.5h2.5a1.25,1.25,0,1,1,0,2.5Zm19.374-14.538V2406.5H782.5v-10.788a5.005,5.005,0,0,1-3.681-4.062l-4.7-.463A5.006,5.006,0,0,1,770.624,2394.463Zm-10.717,1.074a4.88,4.88,0,0,1,.094.964,5,5,0,0,1-3.749,4.838v5.162h11.855v-12.038a5.021,5.021,0,0,1-2.573-1.626Zm-6.674-.8A2.5,2.5,0,1,0,755,2394,2.5,2.5,0,0,0,753.233,2394.733Zm28.748-5.627a2.5,2.5,0,1,0,1.768-.732A2.5,2.5,0,0,0,781.981,2389.106Zm-14.375-1.249a2.5,2.5,0,1,0,1.768-.733A2.5,2.5,0,0,0,767.606,2387.857ZM819.328,2384a1.159,1.159,0,0,1-.3-.038L815,2382.956a1.252,1.252,0,1,1,.626-2.424l2.805.706,8.794-33.6-10.313-2.7-3.788,14.474a1.249,1.249,0,0,1-1.206.931,1.4,1.4,0,0,1-.318-.038,1.25,1.25,0,0,1-.894-1.526l3.8-14.468-27.5-7.194-8.879,33.87,13.123,3.438a1.25,1.25,0,1,1-.624,2.418l-34.735-9.1a1.253,1.253,0,0,1-.888-1.52l9.5-36.3a1.249,1.249,0,0,1,1.526-.887l50.116,13.112.206.031c.067.023.132.046.194.074l12.531,3.282A1.253,1.253,0,0,1,830,2346.7v.109a1.281,1.281,0,0,1-.04.264l-9.419,36a1.25,1.25,0,0,1-1.209.932Zm-61.6-18.346,17.987,4.708,8.87-33.865-17.987-4.726ZM751.25,2381.5a1.251,1.251,0,0,1-1.25-1.25v-40a1.25,1.25,0,0,1,1.25-1.25h7.5a1.25,1.25,0,1,1,0,2.5H752.5V2379h38.749a1.25,1.25,0,0,1,0,2.5Zm7.5-5a1.25,1.25,0,1,1,0-2.5h7.5a1.25,1.25,0,1,1,0,2.5Zm14.146-9.931-10.349-2.714a1.25,1.25,0,1,1,.632-2.418l10.355,2.712a1.25,1.25,0,0,1-.32,2.456A1.419,1.419,0,0,1,772.9,2366.568Zm5.846-25.352-4.926-1.292a1.251,1.251,0,1,1,.625-2.414l4.931,1.288a1.25,1.25,0,0,1-.311,2.456A1.319,1.319,0,0,1,778.743,2341.216Z" fill="#82decf"/>
  </g>
</svg>
