<svg xmlns="http://www.w3.org/2000/svg" xmlns:xlink="http://www.w3.org/1999/xlink" width="80" height="79.999" viewBox="0 0 80 79.999">
  <defs>
    <clipPath id="clip-path">
      <rect id="Rectangle_83" data-name="Rectangle 83" width="80" height="79.999" transform="translate(0 0.001)" fill="none"/>
    </clipPath>
  </defs>
  <g id="Vector_Smart_Object" data-name="Vector Smart Object" transform="translate(-751 -2566.001)">
    <g id="Vector_Smart_Object-2" data-name="Vector Smart Object" transform="translate(751 2566)">
      <g id="Group_130" data-name="Group 130">
        <g id="Group_129" data-name="Group 129" clip-path="url(#clip-path)">
          <path id="Path_274" data-name="Path 274" d="M79.876,1.25A1.181,1.181,0,0,0,78.627,0c-9.621,0-14.5,9.75-16.995,19.126a1.228,1.228,0,1,0,2.375.624A42.78,42.78,0,0,1,68.256,9.626l2.373,2.124a6.668,6.668,0,0,0-.75,2.376,1.181,1.181,0,0,0,1.25,1.25,1.252,1.252,0,0,0,1.25-1.25c.126-2.25,2.623-2.876,2.749-3A1.227,1.227,0,1,0,74.5,8.75a6.907,6.907,0,0,0-2.251,1l-2.747-2.5a10.7,10.7,0,0,1,7.872-4.874V48.752H76l-2.251-2.5a1.54,1.54,0,0,0-1-.5H68a1.25,1.25,0,0,0,0,2.5h4.125l2.123,2.624a1.536,1.536,0,0,0,1,.5l2.125,0v9.25a1.25,1.25,0,1,0,2.5,0Z"/>
          <path id="Path_275" data-name="Path 275" d="M15.893,77.5l4-5.876,11.623-5.5,6.748-1,6.624,3.126a36.2,36.2,0,0,0-5.124,9.376C31.889,77.5,24.643,77.5,15.9,77.5Zm-10-4.874L3.647,70.373,10.895,69l6.248,2.25L12.894,77.5H6.272v-4a1.132,1.132,0,0,0-.376-.874M79.876,67a1.25,1.25,0,1,0-2.5,0V77.5H42.511C46.76,67.125,54.382,59.749,65,63.5a1.266,1.266,0,0,0,.876-2.376,17.3,17.3,0,0,0-11.747-.25,18.119,18.119,0,0,1,3.249-4.75c8-8.374,6.872-12,5.874-23.374a1.131,1.131,0,0,0-1.376-1.126A1.194,1.194,0,0,0,60.756,33c.874,10.874,2.123,13.624-5.25,21.374A18.044,18.044,0,0,0,50.883,62.5a20.479,20.479,0,0,0-4.375,3.624l-7.5-3.5a.938.938,0,0,0-.624-.124l-7.248,1.124a.457.457,0,0,0-.376.126l-11.623,5.5L11.519,66.5a.552.552,0,0,0-.624,0l-9.873,2A1.239,1.239,0,0,0,.4,70.623l3.5,3.5v4.626A1.181,1.181,0,0,0,5.144,80H78.751A1.181,1.181,0,0,0,80,78.749V67Z"/>
          <path id="Path_276" data-name="Path 276" d="M49.633,44.25l-1-2.874,4.625-3.126,1.873,4.5-1.25,2.75Zm6.124,3.25,1.873-4.25a1.36,1.36,0,0,0,0-1l-2.749-6.374a1.119,1.119,0,0,0-.75-.75,1.328,1.328,0,0,0-1,.124l-6.622,4.5a1.365,1.365,0,0,0-.5,1.5l1.5,4.376a1.1,1.1,0,0,0,.874.75l5.874,1.75a1.141,1.141,0,0,0,1.5-.626"/>
          <path id="Path_277" data-name="Path 277" d="M45.761,59.749l-3.5-1.124-.876-2.376,3.751-2.624,1.624,3.75Zm-.75-9-5.874,4a1.368,1.368,0,0,0-.5,1.5l1.376,3.876a1.1,1.1,0,0,0,.876.75L46.136,62.5a1.273,1.273,0,0,0,1.5-.75L49.259,58a1.359,1.359,0,0,0,0-1l-2.373-5.626a1.32,1.32,0,0,0-1.875-.624"/>
          <path id="Path_278" data-name="Path 278" d="M36.263,5.126l.75-2L40.888,4.5l-.75,2ZM52.884,20.25a31.17,31.17,0,0,0-10.873-5l1-2.874a40.115,40.115,0,0,1,9.873,7.874M26.642,45.376,22.767,44,32.39,16.126,36.263,17.5ZM18.143,8.25A44.723,44.723,0,0,1,30.265,8l-1,2.75a33.892,33.892,0,0,0-11.123-2.5M41.262,9.5l-2.125,6.25c-.124,0-8-2.75-7.872-2.75l2.123-6.25c.376.126,8.25,2.876,7.874,2.75m1.5-7L36.513.374a1.3,1.3,0,0,0-1.626.752L33.764,4.374l-.75-.25a1,1,0,0,0-1.5.626l-.376.876C26.39,5,16.769,4.376,10.521,8.5a1.23,1.23,0,0,0,.874,2.25c.126,0,9.747-1,17.247,2.376l-.126.25A1.3,1.3,0,0,0,29.265,15l.75.25-10,29.124A1.3,1.3,0,0,0,20.768,46l6.248,2.124a1.3,1.3,0,0,0,1.626-.75l10-29.124.75.25a1.3,1.3,0,0,0,1.624-.75l.126-.25c8.124,1.75,15.369,8.75,15.5,8.874a1.207,1.207,0,0,0,2-1.25c-2.5-7.376-10.747-12.874-14.87-15.25l.25-.75a1.3,1.3,0,0,0-.75-1.626l-.75-.25,1.124-3.126A1.313,1.313,0,0,0,42.763,2.5Z"/>
        </g>
      </g>
    </g>
    <path id="Color_Overlay" data-name="Color Overlay" d="M756.144,2646a1.181,1.181,0,0,1-1.249-1.25v-4.626l-3.5-3.5a1.239,1.239,0,0,1,.625-2.124l9.873-2a.551.551,0,0,1,.624,0l7.622,2.75,11.623-5.5a.458.458,0,0,1,.376-.126l7.248-1.124a.936.936,0,0,1,.624.124l7.5,3.5a20.484,20.484,0,0,1,4.375-3.624,18.037,18.037,0,0,1,4.622-8.126c7.374-7.75,6.125-10.5,5.251-21.374a1.193,1.193,0,0,1,1.123-1.376,1.132,1.132,0,0,1,1.376,1.127c1,11.373,2.123,15-5.874,23.373a18.113,18.113,0,0,0-3.249,4.75,17.289,17.289,0,0,1,11.746.25A1.266,1.266,0,1,1,816,2629.5c-10.621-3.75-18.242,3.626-22.491,14h34.866V2633a1.25,1.25,0,1,1,2.5,0H831v11.75a1.181,1.181,0,0,1-1.249,1.25Zm26.37-13.876-11.623,5.5-4,5.876h0c8.748,0,15.994,0,23.867.126a36.232,36.232,0,0,1,5.125-9.375l-6.624-3.127Zm-27.868,4.251,2.249,2.252a1.131,1.131,0,0,1,.376.874v4h6.622l4.249-6.25-6.249-2.25Zm42.49-7.874-5.249-1.625a1.1,1.1,0,0,1-.876-.75l-1.375-3.876a1.366,1.366,0,0,1,.5-1.5l5.874-4a1.32,1.32,0,0,1,1.876.625l2.373,5.626a1.359,1.359,0,0,1,0,1l-1.624,3.75a1.233,1.233,0,0,1-1.188.782A1.6,1.6,0,0,1,797.136,2628.5Zm-4.751-6.25.876,2.376,3.5,1.124,1-2.374-1.624-3.75Zm35.992,4.377v-9.25l-2.126,0a1.539,1.539,0,0,1-1-.5l-2.123-2.624H819a1.25,1.25,0,1,1,0-2.5h4.748a1.542,1.542,0,0,1,1,.5l2.251,2.5h1.374v-46.375a10.7,10.7,0,0,0-7.872,4.874l2.748,2.5a6.924,6.924,0,0,1,2.251-1,1.227,1.227,0,1,1,.624,2.374c-.126.126-2.623.751-2.749,3a1.252,1.252,0,0,1-1.25,1.25,1.18,1.18,0,0,1-1.249-1.25,6.665,6.665,0,0,1,.75-2.376l-2.373-2.124a42.775,42.775,0,0,0-4.249,10.124,1.228,1.228,0,1,1-2.375-.624c2.486-9.327,7.322-19.023,16.844-19.125h.2a1.176,1.176,0,0,1,1.2,1.249v59.376a1.25,1.25,0,0,1-2.5,0Zm-23.119-12.5-5.874-1.75a1.1,1.1,0,0,1-.874-.75l-1.5-4.376a1.367,1.367,0,0,1,.5-1.5l6.622-4.5a1.332,1.332,0,0,1,1-.123,1.118,1.118,0,0,1,.75.75l2.749,6.374a1.36,1.36,0,0,1,0,1l-1.873,4.25a1.17,1.17,0,0,1-1.076.723A.943.943,0,0,1,805.258,2614.126Zm-5.625-6.75,1,2.874,4.249,1.25,1.249-2.75-1.873-4.5Zm-21.617,6.75L771.767,2612a1.3,1.3,0,0,1-.75-1.626l10-29.124-.75-.25a1.3,1.3,0,0,1-.75-1.626l.126-.25c-7.5-3.376-17.121-2.376-17.247-2.376a1.23,1.23,0,0,1-.874-2.25c6.248-4.124,15.869-3.5,20.618-2.874l.375-.876a1,1,0,0,1,1.5-.626l.75.25,1.123-3.248a1.3,1.3,0,0,1,1.625-.752l6.249,2.126h0a1.313,1.313,0,0,1,.874,1.624l-1.124,3.126.75.25a1.3,1.3,0,0,1,.75,1.626l-.249.75c4.123,2.376,12.37,7.874,14.869,15.25a1.206,1.206,0,0,1-2,1.249c-.126-.123-7.372-7.123-15.5-8.874l-.126.25a1.3,1.3,0,0,1-1.624.751l-.75-.25-10,29.123a1.342,1.342,0,0,1-1.213.829A1.119,1.119,0,0,1,778.016,2614.126ZM773.767,2610l3.875,1.373,9.622-27.874-3.874-1.375Zm19.245-28.752a31.179,31.179,0,0,1,10.872,5,40.114,40.114,0,0,0-9.873-7.874ZM782.265,2579c-.126,0,7.747,2.75,7.871,2.75l2.125-6.25c.376.126-7.5-2.624-7.873-2.75Zm-13.122-4.749a33.882,33.882,0,0,1,11.122,2.5l1-2.75c-1.448-.131-3.486-.3-5.747-.3A33.827,33.827,0,0,0,769.143,2574.25Zm18.121-3.125,3.875,1.374.75-2-3.875-1.374Z" fill="#82decf"/>
  </g>
</svg>
