<svg xmlns="http://www.w3.org/2000/svg" xmlns:xlink="http://www.w3.org/1999/xlink" width="80" height="79.999" viewBox="0 0 80 79.999">
  <defs>
    <clipPath id="clip-path">
      <rect id="Rectangle_71" data-name="Rectangle 71" width="80" height="79.999" transform="translate(0 0.001)" fill="none"/>
    </clipPath>
  </defs>
  <g id="Vector_Smart_Object" data-name="Vector Smart Object" transform="translate(-1070 -2329.001)">
    <g id="Vector_Smart_Object-2" data-name="Vector Smart Object" transform="translate(1070 2329)">
      <g id="Group_114" data-name="Group 114">
        <g id="Group_113" data-name="Group 113" clip-path="url(#clip-path)">
          <path id="Path_248" data-name="Path 248" d="M40.032,11.622a2.819,2.819,0,1,1-2.75,2.814,2.79,2.79,0,0,1,2.75-2.82Zm0,8.126a5.292,5.292,0,1,0-3.724-1.574,5.323,5.323,0,0,0,3.724,1.574"/>
          <path id="Path_249" data-name="Path 249" d="M70,62.5H62.5v-30H70ZM60,65H72.5v5H60ZM77.5,77.5H2.5v-5h75ZM7.5,65H20v5H7.5ZM10,32.5h7.5v30H10ZM20,30H7.5V25H20ZM2.5,22.5v-4L40,2.6,77.5,18.5v4ZM33.75,25h12.5v5H33.75Zm2.5,7.5h7.5v30h-7.5ZM22.5,70v-6.25a1.25,1.25,0,0,0-1.25-1.25H20v-30h1.25a1.25,1.25,0,0,0,1.25-1.25V25h8.75v6.25A1.25,1.25,0,0,0,32.5,32.5h1.25v30H32.5a1.25,1.25,0,0,0-1.25,1.25V70Zm11.25-5h12.5v5H33.75Zm25-2.5a1.25,1.25,0,0,0-1.25,1.25V70H48.75v-6.25A1.25,1.25,0,0,0,47.5,62.5H46.25v-30H47.5a1.25,1.25,0,0,0,1.25-1.25V25H57.5v6.25a1.25,1.25,0,0,0,1.25,1.25H60v30ZM72.5,30H60V25H72.5Zm1.25,2.5A1.25,1.25,0,0,0,75,31.248V25h3.75A1.25,1.25,0,0,0,80,23.748V17.674a1.247,1.247,0,0,0-.762-1.15L40.488.1a1.252,1.252,0,0,0-.976,0L.762,16.524A1.247,1.247,0,0,0,0,17.674v6.074A1.25,1.25,0,0,0,1.25,25H5v6.25A1.25,1.25,0,0,0,6.25,32.5H7.5v30H6.25A1.25,1.25,0,0,0,5,63.749V70H1.25A1.25,1.25,0,0,0,0,71.249v7.5A1.25,1.25,0,0,0,1.25,80h77.5A1.25,1.25,0,0,0,80,78.749v-7.5A1.25,1.25,0,0,0,78.75,70H75v-6.25a1.25,1.25,0,0,0-1.25-1.25H72.5v-30Z"/>
        </g>
      </g>
    </g>
    <path id="Color_Overlay" data-name="Color Overlay" d="M1071.25,2409a1.251,1.251,0,0,1-1.25-1.25v-7.5a1.25,1.25,0,0,1,1.25-1.249H1075v-6.25a1.25,1.25,0,0,1,1.249-1.25h1.25v-30h-1.25a1.247,1.247,0,0,1-1.249-1.25V2354h-3.75a1.251,1.251,0,0,1-1.25-1.25v-6.074a1.247,1.247,0,0,1,.762-1.15l38.75-16.426a1.255,1.255,0,0,1,.418-.1h.14a1.255,1.255,0,0,1,.418.1l38.75,16.426a1.247,1.247,0,0,1,.762,1.15v6.074a1.251,1.251,0,0,1-1.25,1.25H1145v6.25a1.247,1.247,0,0,1-1.25,1.25H1142.5v30h1.249a1.249,1.249,0,0,1,1.25,1.25V2399h3.75a1.249,1.249,0,0,1,1.25,1.249v7.5a1.251,1.251,0,0,1-1.25,1.25Zm1.25-2.5h75v-5h-75Zm57.5-7.5h12.5v-5H1130Zm-13.75-7.5h1.25a1.251,1.251,0,0,1,1.25,1.25V2399h8.75v-6.25a1.25,1.25,0,0,1,1.25-1.25H1130v-30h-1.25a1.249,1.249,0,0,1-1.25-1.25V2354h-8.75v6.25a1.249,1.249,0,0,1-1.25,1.25h-1.25Zm-12.5,7.5h12.5v-5h-12.5Zm-13.75-7.5h1.25a1.251,1.251,0,0,1,1.25,1.25V2399h8.75v-6.25a1.25,1.25,0,0,1,1.25-1.25h1.25v-30h-1.25a1.249,1.249,0,0,1-1.25-1.25V2354h-8.75v6.25a1.249,1.249,0,0,1-1.25,1.25H1090Zm-12.5,7.5H1090v-5h-12.5Zm55-7.5h7.5v-30h-7.5Zm-26.249,0h7.5v-30h-7.5Zm-26.25,0h7.5v-30H1080Zm50-32.5h12.5v-5H1130Zm-26.25,0h12.5v-5h-12.5Zm-26.25,0H1090v-5h-12.5Zm-5-11.5v4h75v-4L1110,2331.6Zm37.532,1.249a5.225,5.225,0,1,1,.071,0Zm-1.958-7.29a2.847,2.847,0,0,0,.039,3.981,2.819,2.819,0,1,0,1.92-4.817v-.006A2.79,2.79,0,0,0,1108.074,2341.458Z" fill="#82decf"/>
  </g>
</svg>
