<svg xmlns="http://www.w3.org/2000/svg" xmlns:xlink="http://www.w3.org/1999/xlink" width="80" height="80" viewBox="0 0 80 80">
  <defs>
    <clipPath id="clip-path">
      <rect id="Rectangle_85" data-name="Rectangle 85" width="80" height="80" fill="none"/>
    </clipPath>
  </defs>
  <g id="Vector_Smart_Object" data-name="Vector Smart Object" transform="translate(-1070 -2566)">
    <g id="Vector_Smart_Object-2" data-name="Vector Smart Object" transform="translate(1070 2566)">
      <g id="Group_134" data-name="Group 134">
        <g id="Group_133" data-name="Group 133" clip-path="url(#clip-path)">
          <path id="Path_284" data-name="Path 284" d="M23.381,66.338a3.958,3.958,0,0,1,1.766.444,41.036,41.036,0,0,0,6.331,2.562,3.366,3.366,0,0,1,2.63,3.32v3.7a1.3,1.3,0,0,0,1.253,1.25h9.448a1.3,1.3,0,0,0,1.255-1.25v-3.7a3.436,3.436,0,0,1,2.455-3.32l.928-.278-6.3-6.28-.293.048a15.886,15.886,0,0,1-2.774.16A22.994,22.994,0,1,1,63.127,40v2.264l6.227,6.026.391-.546a3.828,3.828,0,0,1,3.072-1.778h3.712a1.3,1.3,0,0,0,1.255-1.252V35.286a1.3,1.3,0,0,0-1.255-1.252H72.817a3.573,3.573,0,0,1-3.321-2.6,29.042,29.042,0,0,0-2.573-6.338l-.012-.022a3.477,3.477,0,0,1,.567-4.014l2.868-2.526.012-.012a1.4,1.4,0,0,0,0-1.826L63.61,9.958a1.029,1.029,0,0,0-1.661,0l-2.714,2.708-.014.014a2.986,2.986,0,0,1-2.293.992,3.554,3.554,0,0,1-1.714-.442l-.022-.012a41.056,41.056,0,0,0-6.333-2.562,3.364,3.364,0,0,1-2.628-3.32v-3.7a1.3,1.3,0,0,0-1.253-1.25h-9.45a1.3,1.3,0,0,0-1.253,1.25v3.7a3.569,3.569,0,0,1-2.607,3.314,29.19,29.19,0,0,0-6.353,2.568l-.022.012a3.271,3.271,0,0,1-1.583.394,3.524,3.524,0,0,1-2.451-.972l-2.7-2.694a1.029,1.029,0,0,0-1.661,0l-6.748,6.736a1.4,1.4,0,0,0,0,1.826l.02.022,2.714,2.2a3.231,3.231,0,0,1,.543,3.992l-.012.022a41.117,41.117,0,0,0-2.565,6.318A3.37,3.37,0,0,1,7.52,33.7H3.808a1.3,1.3,0,0,0-1.253,1.25v9.43a1.3,1.3,0,0,0,1.253,1.25H7.52a3.576,3.576,0,0,1,3.323,2.6,29.152,29.152,0,0,0,2.571,6.34l.012.022a3.477,3.477,0,0,1-.577,4.026l-2.7,2.694a1.4,1.4,0,0,0,0,1.826L16.9,69.872a1.029,1.029,0,0,0,1.661,0l2.553-2.548.02-.024a2.848,2.848,0,0,1,2.249-.962M35.36,80a3.514,3.514,0,0,1-3.471-3.464v-3.7a1.163,1.163,0,0,0-.988-1.246,34.455,34.455,0,0,1-6.684-2.768,1.075,1.075,0,0,0-.667-.226,1.052,1.052,0,0,0-.746.3l-2.7,2.694a3.61,3.61,0,0,1-4.92,0L8.436,64.848a3.481,3.481,0,0,1,0-4.908l2.7-2.694a1.056,1.056,0,0,0,.3-.746,1.07,1.07,0,0,0-.226-.666A34.321,34.321,0,0,1,8.414,49.1l-.04-.144-.106-.106c-.026-.026-.052-.06-.082-.1a1.283,1.283,0,0,0-1-.578H3.471A3.514,3.514,0,0,1,0,44.714V35.286a3.514,3.514,0,0,1,3.471-3.464H7.183a1.166,1.166,0,0,0,1.249-.986,34.3,34.3,0,0,1,2.774-6.67,1.07,1.07,0,0,0,.226-.666,1.056,1.056,0,0,0-.3-.746l-2.7-2.694a3.113,3.113,0,0,1-1.012-2.454,3.119,3.119,0,0,1,1.012-2.454l6.748-6.734a3.61,3.61,0,0,1,4.92,0l2.7,2.694a1.052,1.052,0,0,0,.746.3,1.075,1.075,0,0,0,.667-.226A34.352,34.352,0,0,1,30.963,8.4l.144-.04.106-.106a.819.819,0,0,1,.1-.082,1.28,1.28,0,0,0,.579-1v-3.7A3.514,3.514,0,0,1,35.36,0h9.448a3.514,3.514,0,0,1,3.471,3.464v3.7a1.164,1.164,0,0,0,.988,1.246,34.4,34.4,0,0,1,6.684,2.768,1.079,1.079,0,0,0,.667.226,1.061,1.061,0,0,0,.748-.3l2.7-2.694a3.608,3.608,0,0,1,4.918,0l6.726,6.712a3.653,3.653,0,0,1,.866,2.476,3.113,3.113,0,0,1-1.012,2.454l-2.7,2.694a1.056,1.056,0,0,0-.3.746,1.07,1.07,0,0,0,.226.666A34.2,34.2,0,0,1,71.586,30.9l.04.144.106.106a.818.818,0,0,1,.082.1,1.287,1.287,0,0,0,1,.578h3.712A3.475,3.475,0,0,1,80,35.118v9.428a3.514,3.514,0,0,1-3.471,3.464H72.817a1.167,1.167,0,0,0-1.249.982l-.491,1.63,0,.014a1.057,1.057,0,0,1-.8.77.8.8,0,0,1-.251.038,1.04,1.04,0,0,1-.675-.234L61.285,43.5a2.1,2.1,0,0,1-.375-1.144V40A20.826,20.826,0,1,0,40.084,60.782a18.2,18.2,0,0,0,3.088-.168,1.807,1.807,0,0,1,1.058.336l7.931,7.912a1.15,1.15,0,0,1,.367,1.094,1.058,1.058,0,0,1-.774.8l-.022.006-.02.008c-.261.086-.716.25-1.2.426-.453.164-.92.334-1.166.416l-.038.012-.038.018c-.395.2-.994.5-.994,1.19v3.7A3.514,3.514,0,0,1,44.808,80Z"/>
          <path id="Path_285" data-name="Path 285" d="M69.781,77.138a7.878,7.878,0,0,1-5.5-2.356L44.479,55.018l-.321.082a16.919,16.919,0,0,1-4.187.53,16.546,16.546,0,0,1-11.626-4.758,16.246,16.246,0,0,1-3.91-16.75l.008-.022.006-.022a1.022,1.022,0,0,1,.713-.738,1.779,1.779,0,0,1,1.016.334L35.024,42.5l8.436-8.418L45,35.622,35.8,44.812a1.054,1.054,0,0,1-1.543,0l-8.261-8.244-.146,1.172a13.87,13.87,0,0,0,4.046,11.424,14.419,14.419,0,0,0,9.955,4.088,13.708,13.708,0,0,0,4.477-.752l.07-.024.062-.042a.467.467,0,0,1,.265-.078,1.043,1.043,0,0,1,.693.344L65.652,72.9a5.235,5.235,0,0,0,3.9,1.692,5.652,5.652,0,0,0,4.006-1.676,5.218,5.218,0,0,0,1.7-3.77,5.691,5.691,0,0,0-1.686-4.126l-20.247-20.2a1.277,1.277,0,0,1-.192-1.114,13.65,13.65,0,0,0-3.351-14.376,13.239,13.239,0,0,0-9.712-4.146,14.017,14.017,0,0,0-1.736.108l-1.174.146,3.127,3.122-1.543,1.54L34.21,25.576l-.046-.03a.783.783,0,0,1-.279-.854,1.47,1.47,0,0,1,.816-.812,17.185,17.185,0,0,1,5.309-.85A16.3,16.3,0,0,1,55.723,43.56l-.082.318L75.274,63.642a8.024,8.024,0,0,1,0,11.14l-.02.022a7.655,7.655,0,0,1-5.475,2.334"/>
        </g>
      </g>
    </g>
    <path id="Color_Overlay" data-name="Color Overlay" d="M1105.36,2646a3.514,3.514,0,0,1-3.471-3.464v-3.7a1.163,1.163,0,0,0-.988-1.246,34.436,34.436,0,0,1-6.683-2.768,1.077,1.077,0,0,0-.668-.226,1.052,1.052,0,0,0-.745.3l-2.7,2.695a3.611,3.611,0,0,1-4.92,0l-6.748-6.735a3.48,3.48,0,0,1,0-4.908l2.7-2.694a1.057,1.057,0,0,0,.3-.746,1.071,1.071,0,0,0-.226-.666,34.321,34.321,0,0,1-2.792-6.732l-.04-.144-.106-.106c-.026-.026-.052-.06-.082-.1a1.285,1.285,0,0,0-1-.578h-3.712a3.514,3.514,0,0,1-3.471-3.464v-9.427a3.514,3.514,0,0,1,3.471-3.464h3.712a1.167,1.167,0,0,0,1.249-.987,34.244,34.244,0,0,1,2.774-6.67,1.071,1.071,0,0,0,.226-.666,1.057,1.057,0,0,0-.3-.746l-2.7-2.694a3.48,3.48,0,0,1,0-4.908l6.748-6.735a3.611,3.611,0,0,1,4.92,0l2.7,2.695a1.052,1.052,0,0,0,.745.3,1.078,1.078,0,0,0,.668-.227,34.329,34.329,0,0,1,6.745-2.786l.145-.041.106-.105a.831.831,0,0,1,.1-.082,1.28,1.28,0,0,0,.579-1v-3.7a3.514,3.514,0,0,1,3.471-3.464h9.448a3.514,3.514,0,0,1,3.471,3.464v3.7a1.164,1.164,0,0,0,.988,1.247,34.408,34.408,0,0,1,6.683,2.768,1.082,1.082,0,0,0,.668.227,1.064,1.064,0,0,0,.748-.3l2.7-2.695a3.609,3.609,0,0,1,4.918,0l6.726,6.712a3.651,3.651,0,0,1,.866,2.476,3.114,3.114,0,0,1-1.012,2.454l-2.7,2.694a1.057,1.057,0,0,0-.3.746,1.07,1.07,0,0,0,.226.666,34.157,34.157,0,0,1,2.792,6.732l.04.144.106.106a.811.811,0,0,1,.082.1,1.288,1.288,0,0,0,1,.578h3.712a3.475,3.475,0,0,1,3.471,3.3v9.428a3.513,3.513,0,0,1-3.471,3.463h-3.712a1.167,1.167,0,0,0-1.249.983l-.49,1.63,0,.013a1.059,1.059,0,0,1-.8.771.833.833,0,0,1-.251.038,1.037,1.037,0,0,1-.675-.234l-8.061-7.708a2.105,2.105,0,0,1-.374-1.145V2606a20.826,20.826,0,1,0-20.826,20.783,18.153,18.153,0,0,0,3.089-.168,1.8,1.8,0,0,1,1.057.336l7.931,7.912a1.15,1.15,0,0,1,.367,1.094,1.06,1.06,0,0,1-.774.8l-.022.005-.021.008c-.26.086-.715.25-1.2.427-.453.164-.92.334-1.166.416l-.038.012-.039.018c-.394.2-.994.5-.994,1.19v3.7a3.514,3.514,0,0,1-3.471,3.464Zm-10.213-13.218a41.043,41.043,0,0,0,6.332,2.562,3.365,3.365,0,0,1,2.629,3.32v3.7a1.3,1.3,0,0,0,1.253,1.25h9.448a1.3,1.3,0,0,0,1.255-1.25v-3.7a3.435,3.435,0,0,1,2.455-3.32l.928-.278-6.3-6.28-.292.049a15.967,15.967,0,0,1-2.774.159A22.994,22.994,0,1,1,1133.127,2606v2.264l6.227,6.026.391-.546a3.829,3.829,0,0,1,3.073-1.779h3.712a1.3,1.3,0,0,0,1.255-1.252v-9.427a1.3,1.3,0,0,0-1.255-1.252h-3.712a3.573,3.573,0,0,1-3.321-2.6,29.063,29.063,0,0,0-2.574-6.338l-.012-.021a3.477,3.477,0,0,1,.567-4.014l2.868-2.526.012-.012a1.4,1.4,0,0,0,0-1.826l-6.748-6.737a1.03,1.03,0,0,0-1.661,0l-2.714,2.708-.014.014a2.984,2.984,0,0,1-2.292.992,3.553,3.553,0,0,1-1.714-.442l-.022-.012a41.061,41.061,0,0,0-6.333-2.562,3.363,3.363,0,0,1-2.627-3.32v-3.7a1.3,1.3,0,0,0-1.253-1.25h-9.45a1.3,1.3,0,0,0-1.253,1.25v3.7a3.568,3.568,0,0,1-2.607,3.314,29.183,29.183,0,0,0-6.353,2.569l-.022.012a3.265,3.265,0,0,1-1.583.394,3.522,3.522,0,0,1-2.451-.972l-2.7-2.695a1.03,1.03,0,0,0-1.661,0l-6.748,6.737a1.4,1.4,0,0,0,0,1.826l.02.021,2.714,2.2a3.231,3.231,0,0,1,.543,3.991l-.012.023a41.019,41.019,0,0,0-2.566,6.318,3.37,3.37,0,0,1-3.329,2.624h-3.712a1.3,1.3,0,0,0-1.253,1.25v9.43a1.3,1.3,0,0,0,1.253,1.25h3.712a3.578,3.578,0,0,1,3.324,2.6,29.119,29.119,0,0,0,2.571,6.34l.012.023a3.478,3.478,0,0,1-.577,4.026l-2.7,2.694a1.4,1.4,0,0,0,0,1.826l6.748,6.735a1.03,1.03,0,0,0,1.661,0l2.553-2.549.02-.023a2.849,2.849,0,0,1,2.249-.962A3.963,3.963,0,0,1,1095.147,2632.782Zm39.138,8-19.805-19.764-.321.082a16.912,16.912,0,0,1-4.187.53,16.548,16.548,0,0,1-11.626-4.758,16.247,16.247,0,0,1-3.91-16.75l.008-.021.006-.022a1.022,1.022,0,0,1,.714-.738,1.781,1.781,0,0,1,1.016.335l8.844,8.825,8.436-8.418,1.545,1.54-9.21,9.19a1.054,1.054,0,0,1-1.543,0l-8.262-8.244-.146,1.172a13.873,13.873,0,0,0,4.046,11.425,14.422,14.422,0,0,0,9.955,4.088,13.7,13.7,0,0,0,4.478-.752l.07-.023.062-.042a.466.466,0,0,1,.265-.078,1.039,1.039,0,0,1,.693.345l20.239,20.2a5.234,5.234,0,0,0,3.9,1.692,5.649,5.649,0,0,0,4.006-1.677,5.216,5.216,0,0,0,1.7-3.77,5.691,5.691,0,0,0-1.686-4.126l-20.246-20.2a1.278,1.278,0,0,1-.193-1.114,13.648,13.648,0,0,0-3.351-14.376,13.238,13.238,0,0,0-9.713-4.146,14.008,14.008,0,0,0-1.735.108l-1.175.147,3.127,3.121-1.543,1.541-4.525-4.516-.046-.031a.781.781,0,0,1-.279-.853,1.474,1.474,0,0,1,.816-.813,17.2,17.2,0,0,1,5.309-.85,16.3,16.3,0,0,1,15.712,20.53l-.082.318,19.633,19.764a8.024,8.024,0,0,1,0,11.14l-.02.022a7.657,7.657,0,0,1-5.476,2.334A7.875,7.875,0,0,1,1134.285,2640.782Z" fill="#82decf"/>
  </g>
</svg>
