<svg xmlns="http://www.w3.org/2000/svg" xmlns:xlink="http://www.w3.org/1999/xlink" width="85.346" height="80" viewBox="0 0 85.346 80">
  <defs>
    <clipPath id="clip-path">
      <rect id="Rectangle_89" data-name="Rectangle 89" width="85.346" height="80" fill="none"/>
    </clipPath>
  </defs>
  <g id="Vector_Smart_Object" data-name="Vector Smart Object" transform="translate(-589.826 -2802)">
    <g id="Vector_Smart_Object-2" data-name="Vector Smart Object" transform="translate(589.826 2802)">
      <g id="Group_142" data-name="Group 142">
        <g id="Group_141" data-name="Group 141" clip-path="url(#clip-path)">
          <path id="Path_300" data-name="Path 300" d="M35.832,23.77a6.874,6.874,0,0,1,13.682,0,11.583,11.583,0,0,1-13.682,0m3.634-12.1a3.2,3.2,0,1,0,0-.02ZM31,14.336A11.668,11.668,0,1,1,51.794,21.6a9.584,9.584,0,0,0-4.98-5.776,5.874,5.874,0,1,0-8.276,0,9.584,9.584,0,0,0-4.98,5.776A11.6,11.6,0,0,1,31,14.336m26,0a14.347,14.347,0,1,0-4.2,10.134,14.334,14.334,0,0,0,4.2-10.134"/>
          <path id="Path_301" data-name="Path 301" d="M20,77.346a17.334,17.334,0,1,1,12.26-5.078A17.329,17.329,0,0,1,20,77.346M30,42.674A20,20,0,1,0,37.33,50,20,20,0,0,0,30,42.674"/>
          <path id="Path_302" data-name="Path 302" d="M34.21,31.7a1.3,1.3,0,0,0,.54.12,1.334,1.334,0,1,0-.54-.12"/>
          <path id="Path_303" data-name="Path 303" d="M29.484,38.954a1.335,1.335,0,1,0,1.116-.782,1.334,1.334,0,0,0-1.116.782"/>
          <path id="Path_304" data-name="Path 304" d="M31.51,34.446a1.334,1.334,0,0,0,.666,1.76,1.3,1.3,0,0,0,.54.12,1.333,1.333,0,1,0-1.212-1.88Z"/>
          <path id="Path_305" data-name="Path 305" d="M26.67,69.346H13.334v-16H16v1.334a1.334,1.334,0,0,0,2.668,0V53.344h2.666v1.334a1.334,1.334,0,0,0,2.668,0V53.344H26.67Zm-8-19.75A1.493,1.493,0,0,1,20,48.008,1.493,1.493,0,0,1,21.336,49.6v1.08H18.67ZM28,50.676H24V49.6a4.137,4.137,0,0,0-4-4.254A4.133,4.133,0,0,0,16,49.6v1.08H12a1.335,1.335,0,0,0-1.334,1.334V70.68A1.332,1.332,0,0,0,12,72.012H28a1.332,1.332,0,0,0,1.334-1.332V52.01A1.332,1.332,0,0,0,28,50.676"/>
          <path id="Path_306" data-name="Path 306" d="M72.176,69.346h-13.5V50.676h13.5a1.333,1.333,0,1,0,0-2.666H57.34a1.333,1.333,0,0,0-1.334,1.332V70.68a1.338,1.338,0,0,0,1.334,1.334H72.176a1.334,1.334,0,0,0,0-2.668"/>
          <path id="Path_307" data-name="Path 307" d="M77.244,60.516a1.032,1.032,0,0,0,.04-.134.146.146,0,0,1,.034-.112,1.338,1.338,0,0,0,0-.52.144.144,0,0,0-.034-.114,1.032,1.032,0,0,0-.04-.134,1.354,1.354,0,0,0-.066-.132.124.124,0,0,0-.054-.1,1.285,1.285,0,0,0-.166-.208l-5.336-5.334a1.334,1.334,0,0,0-1.886,1.888l3.054,3.06H64.008a1.333,1.333,0,1,0,0,2.666H72.79L69.73,64.4a1.334,1.334,0,0,0,1.886,1.886l5.334-5.334a1.51,1.51,0,0,0,.168-.206s.032-.068.052-.1a1.258,1.258,0,0,0,.074-.134"/>
          <path id="Path_308" data-name="Path 308" d="M65.342,77.346A17.341,17.341,0,1,1,77.6,72.268a17.329,17.329,0,0,1-12.258,5.078m10-34.672A20.012,20.012,0,1,0,82.67,50a20,20,0,0,0-7.324-7.328"/>
          <path id="Path_309" data-name="Path 309" d="M51.928,29.94a1.333,1.333,0,1,0-1.214,1.88,1.289,1.289,0,0,0,.54-.12,1.333,1.333,0,0,0,.674-1.76"/>
          <path id="Path_310" data-name="Path 310" d="M54.768,40.834a1.349,1.349,0,0,0,.546-.12,1.333,1.333,0,1,0-.546.12"/>
          <path id="Path_311" data-name="Path 311" d="M52.74,36.326a1.3,1.3,0,0,0,.54-.12,1.334,1.334,0,1,0-.54.12"/>
        </g>
      </g>
    </g>
    <path id="Color_Overlay" data-name="Color Overlay" d="M651.689,2881.694a20,20,0,1,1,23.484-19.95v.512a20,20,0,0,1-23.484,19.438Zm-8.779-31.942a17.334,17.334,0,1,0,12.258-5.078A17.338,17.338,0,0,0,642.911,2849.752Zm-36.562,31.942a20,20,0,0,1-16.522-19.545v-.308a20.008,20.008,0,1,1,16.522,19.853Zm-8.779-31.942a17.338,17.338,0,1,0,12.258-5.078A17.33,17.33,0,0,0,597.57,2849.752Zm49.6,24.262a1.338,1.338,0,0,1-1.334-1.335v-21.338a1.333,1.333,0,0,1,1.334-1.332H662a1.333,1.333,0,1,1,0,2.667H648.5v18.67H662a1.334,1.334,0,0,1,0,2.668Zm-45.338,0a1.332,1.332,0,0,1-1.335-1.332v-18.67a1.335,1.335,0,0,1,1.335-1.334h4v-1.08a4,4,0,1,1,8,0v1.08h4a1.332,1.332,0,0,1,1.334,1.334v18.67a1.332,1.332,0,0,1-1.334,1.332Zm1.332-2.666H616.5v-16h-2.666v1.334a1.334,1.334,0,0,1-2.668,0v-1.334H608.5v1.334a1.334,1.334,0,0,1-2.668,0v-1.334h-2.668Zm5.335-19.75v1.08h2.667v-1.08a1.354,1.354,0,1,0-2.667,0Zm51.061,16.694a1.332,1.332,0,0,1,0-1.886l3.06-3.062h-8.782a1.333,1.333,0,1,1,0-2.666h8.782l-3.055-3.06a1.335,1.335,0,1,1,1.886-1.888l5.336,5.333a1.28,1.28,0,0,1,.166.209.123.123,0,0,1,.054.1,1.377,1.377,0,0,1,.067.131,1.156,1.156,0,0,1,.04.134.144.144,0,0,1,.034.114,1.333,1.333,0,0,1,0,.52.144.144,0,0,0-.034.112,1.16,1.16,0,0,1-.04.134,1.242,1.242,0,0,1-.075.134c-.02.031-.051.1-.051.1a1.539,1.539,0,0,1-.168.206l-5.334,5.334a1.331,1.331,0,0,1-1.885,0Zm-14.972-25.457a1.333,1.333,0,1,1,.555-.12,1.359,1.359,0,0,1-.546.12Zm-24.061,0a1.335,1.335,0,1,1,1.172-.694,1.342,1.342,0,0,1-1.172.694Zm22.029-4.508a1.334,1.334,0,1,1,.553-.12,1.289,1.289,0,0,1-.54.12Zm-20.012,0a1.29,1.29,0,0,1-.54-.12,1.335,1.335,0,0,1-.666-1.76h-.006a1.334,1.334,0,1,1,1.218,1.88Zm17.994-4.506a1.343,1.343,0,1,1,.544-.121,1.284,1.284,0,0,1-.54.121Zm-15.96,0a1.29,1.29,0,0,1-.54-.121,1.333,1.333,0,1,1,.551.121Zm-2.214-7.348a14.326,14.326,0,1,1,10.136,4.2A14.328,14.328,0,0,1,622.363,2826.472Zm6.9-6.088a6.869,6.869,0,0,0-3.6,5.386,11.583,11.583,0,0,0,13.683,0,6.873,6.873,0,0,0-10.08-5.386Zm7.4-10.88a5.877,5.877,0,0,1-.022,8.318,9.583,9.583,0,0,1,4.98,5.776,11.672,11.672,0,1,0-18.236,0,9.58,9.58,0,0,1,4.98-5.776,5.875,5.875,0,1,1,8.3-8.318Zm-6.438,1.892a3.207,3.207,0,1,0,2.275-.948h-.01A3.2,3.2,0,0,0,630.225,2811.4Z" fill="#82decf"/>
  </g>
</svg>
