<svg id="Vector_Smart_Object" data-name="Vector Smart Object" xmlns="http://www.w3.org/2000/svg" xmlns:xlink="http://www.w3.org/1999/xlink" width="67" height="40" viewBox="0 0 67 40">
  <defs>
    <clipPath id="clip-path">
      <rect id="Rectangle_271" data-name="Rectangle 271" width="67" height="40" fill="none"/>
    </clipPath>
  </defs>
  <g id="Group_362" data-name="Group 362">
    <g id="Group_361" data-name="Group 361" clip-path="url(#clip-path)">
      <path id="Path_4474" data-name="Path 4474" d="M18.881,14.527a6.721,6.721,0,0,0,.245,1.98,11.9,11.9,0,0,0,.713,1.6.967.967,0,0,1,.156.512.881.881,0,0,1-.423.667l-1.4.934a1.07,1.07,0,0,1-.579.2,1.026,1.026,0,0,1-.669-.311,6.884,6.884,0,0,1-.8-1.046c-.223-.378-.446-.8-.691-1.313a8.237,8.237,0,0,1-6.551,3.07,6.112,6.112,0,0,1-4.457-1.6A5.71,5.71,0,0,1,2.77,14.95,5.723,5.723,0,0,1,4.8,10.367a8.115,8.115,0,0,1,5.459-1.735,17.672,17.672,0,0,1,2.362.178c.824.111,1.671.289,2.563.489V7.675a4.924,4.924,0,0,0-1.047-3.56A5.135,5.135,0,0,0,10.5,3.092,10.155,10.155,0,0,0,8.1,3.382a17.777,17.777,0,0,0-2.407.756,6.4,6.4,0,0,1-.78.289,1.369,1.369,0,0,1-.357.067c-.312,0-.468-.222-.468-.69V2.714a1.406,1.406,0,0,1,.156-.779,1.668,1.668,0,0,1,.624-.467,12.843,12.843,0,0,1,2.808-1A13.531,13.531,0,0,1,11.149.044c2.652,0,4.59.6,5.838,1.8,1.226,1.2,1.85,3.026,1.85,5.473v7.208ZM9.834,17.909a7.232,7.232,0,0,0,2.3-.4,4.966,4.966,0,0,0,2.117-1.424A3.529,3.529,0,0,0,15,14.661a7.974,7.974,0,0,0,.223-1.935v-.934a18.637,18.637,0,0,0-2.05-.378,16.818,16.818,0,0,0-2.095-.133,5.143,5.143,0,0,0-3.32.89A3.1,3.1,0,0,0,6.67,14.727a3.1,3.1,0,0,0,.824,2.358,3.093,3.093,0,0,0,2.34.823m17.894,2.4a1.245,1.245,0,0,1-.847-.222,1.812,1.812,0,0,1-.468-.868l-5.237-17.2a3.891,3.891,0,0,1-.2-.89.488.488,0,0,1,.535-.556h2.184A1.237,1.237,0,0,1,24.564.8a1.819,1.819,0,0,1,.446.868L28.753,16.4,32.229,1.669A1.56,1.56,0,0,1,32.652.8a1.535,1.535,0,0,1,.891-.222h1.783A1.343,1.343,0,0,1,36.218.8a1.5,1.5,0,0,1,.423.868l3.521,14.905L44.017,1.669A1.907,1.907,0,0,1,44.463.8a1.456,1.456,0,0,1,.869-.222H47.4a.5.5,0,0,1,.557.556,2.215,2.215,0,0,1-.045.356,3.161,3.161,0,0,1-.156.556l-5.37,17.2a1.705,1.705,0,0,1-.468.868,1.427,1.427,0,0,1-.847.222H39.159a1.343,1.343,0,0,1-.891-.222,1.576,1.576,0,0,1-.423-.89L34.391,4.872,30.959,19.2a1.735,1.735,0,0,1-.423.89,1.383,1.383,0,0,1-.891.222Zm28.634.6a14.769,14.769,0,0,1-3.432-.4,10.148,10.148,0,0,1-2.563-.89A1.6,1.6,0,0,1,49.677,19a1.568,1.568,0,0,1-.134-.623V17.241c0-.467.178-.69.513-.69a1.264,1.264,0,0,1,.4.067c.134.044.334.133.557.222a12.135,12.135,0,0,0,2.451.779,13.4,13.4,0,0,0,2.652.267,6.02,6.02,0,0,0,3.253-.734,2.4,2.4,0,0,0,1.159-2.113,2.165,2.165,0,0,0-.6-1.557,5.594,5.594,0,0,0-2.251-1.157l-3.231-1A6.8,6.8,0,0,1,50.88,9.055a5.3,5.3,0,0,1-1.114-3.226,4.945,4.945,0,0,1,.6-2.469,5.723,5.723,0,0,1,1.6-1.824A7.077,7.077,0,0,1,54.29.378,9.727,9.727,0,0,1,57.1,0,11.2,11.2,0,0,1,58.59.089c.513.067.98.156,1.448.245.446.111.869.222,1.27.356a4.867,4.867,0,0,1,.936.4,1.926,1.926,0,0,1,.669.556,1.2,1.2,0,0,1,.2.734V3.426c0,.467-.178.712-.513.712a2.321,2.321,0,0,1-.847-.267A10.209,10.209,0,0,0,57.476,3a5.759,5.759,0,0,0-2.964.623,2.147,2.147,0,0,0-1.047,1.98,2.1,2.1,0,0,0,.669,1.58,6.66,6.66,0,0,0,2.451,1.224l3.164,1A6.779,6.779,0,0,1,63.2,11.546a5.029,5.029,0,0,1,1.025,3.115,5.711,5.711,0,0,1-.579,2.581A5.985,5.985,0,0,1,62.022,19.2a7.187,7.187,0,0,1-2.473,1.246,10.612,10.612,0,0,1-3.187.467" fill="#252f3e"/>
      <path id="Path_4475" data-name="Path 4475" d="M60.574,31.724C53.242,37.13,42.591,40,33.432,40A49.147,49.147,0,0,1,.3,27.386c-.691-.623-.067-1.468.758-.979a66.91,66.91,0,0,0,33.158,8.788A66.261,66.261,0,0,0,59.5,30.033c1.226-.556,2.273.8,1.07,1.691" fill="#f90" fill-rule="evenodd"/>
      <path id="Path_4476" data-name="Path 4476" d="M63.627,28.254c-.936-1.2-6.195-.578-8.579-.289-.713.089-.824-.534-.178-1,4.189-2.937,11.075-2.091,11.877-1.112.8,1-.223,7.875-4.145,11.168-.6.512-1.181.245-.914-.423.891-2.2,2.875-7.164,1.939-8.343" fill="#f90" fill-rule="evenodd"/>
    </g>
  </g>
</svg>
