<svg xmlns="http://www.w3.org/2000/svg" width="104" height="43" viewBox="0 0 104 43">
  <g id="Vector_Smart_Object" data-name="Vector Smart Object" transform="translate(-15.047 -22.52)">
    <g id="Group_363" data-name="Group 363">
      <path id="element" d="M15.047,22.52V32.638H50.635V22.52Zm33.364,7.917H17.272V24.722H48.411Z" fill="#01a982"/>
      <path id="Path_4477" data-name="Path 4477" d="M17.271,49.362H15.047V39.243h2.225v4h3.974v-4H23.47V49.362H21.246V45.169H17.271Zm11.253.162A3.52,3.52,0,0,1,24.729,45.8a3.535,3.535,0,0,1,3.5-3.8c2.175,0,3.254,1.441,3.254,3.594V46.4H26.839a1.834,1.834,0,0,0,2.028,1.408,3.5,3.5,0,0,0,2.012-.582h.082v1.667A4.173,4.173,0,0,1,28.524,49.524Zm-1.685-4.6h2.65c-.049-.745-.36-1.263-1.227-1.263A1.34,1.34,0,0,0,26.839,44.926Zm10.451.194-1.145,4.242H34.2l-2.225-7.124v-.081H34.1l1.211,4.258,1.145-4.258H38.19l1.161,4.258,1.227-4.258h2.045v.081L40.4,49.362H38.452Zm8.946,4.4c-1.767,0-2.486-.7-2.486-2.331V39.243h2.159v7.8c0,.5.2.68.621.68a1.632,1.632,0,0,0,.491-.1h.033v1.765A2.6,2.6,0,0,1,46.237,49.524Zm5.217,0A3.52,3.52,0,0,1,47.66,45.8a3.534,3.534,0,0,1,3.5-3.8c2.175,0,3.255,1.441,3.255,3.594V46.4H49.769A1.834,1.834,0,0,0,51.8,47.807a3.5,3.5,0,0,0,2.012-.582h.082v1.667A4.171,4.171,0,0,1,51.454,49.524Zm-1.685-4.6h2.65c-.049-.745-.36-1.263-1.227-1.263A1.34,1.34,0,0,0,49.769,44.926Zm13.509-2.769h1.6v1.716h-1.6V46.8c0,.631.245.923.9.923a2.056,2.056,0,0,0,.654-.1h.049v1.684a3.9,3.9,0,0,1-1.325.21c-1.751,0-2.437-.793-2.437-2.623V43.873H58.356V46.8c0,.631.245.923.9.923a2.055,2.055,0,0,0,.654-.1h.049v1.684a3.9,3.9,0,0,1-1.325.21c-1.75,0-2.437-.793-2.437-2.623V43.873H55.084V42.157H56.2V40.182h2.159v1.975H61.12V40.182h2.159Zm12.8.518c0,2.2-1.488,3.4-3.746,3.4H70.75v3.286H68.526V39.243h3.81C74.593,39.243,76.082,40.441,76.082,42.676Zm-3.926,1.538a1.558,1.558,0,1,0,0-3.108H70.75v3.108Zm8.734,4.436a2.461,2.461,0,0,1-1.929.842,2.365,2.365,0,0,1-2.584-2.379c0-1.409,1.161-2.348,2.829-2.348a5.794,5.794,0,0,1,1.619.243v-.129c0-.777-.442-1.117-1.6-1.117a4.188,4.188,0,0,0-2.044.55H77.1V42.595a5.41,5.41,0,0,1,2.5-.6c2.192,0,3.386,1.036,3.386,2.85v4.517H80.889Zm-.065-1.554V46.48a2.542,2.542,0,0,0-1.194-.243c-.7,0-1.128.259-1.128.842,0,.6.425.858,1.063.858A1.266,1.266,0,0,0,80.825,47.095Zm3.255-1.327A3.622,3.622,0,0,1,87.89,42a3.459,3.459,0,0,1,2.028.55v1.83h-.082a2.728,2.728,0,0,0-1.668-.567,1.952,1.952,0,0,0,0,3.9,2.728,2.728,0,0,0,1.668-.567h.082v1.829a3.454,3.454,0,0,1-2.028.551A3.609,3.609,0,0,1,84.079,45.768Zm9.354.324v3.27H91.276V39.243h2.158v5.763l2.176-2.849h2.453v.081l-2.616,3.27,2.616,3.772v.081H95.593Zm9.536,2.558a2.464,2.464,0,0,1-1.93.842,2.365,2.365,0,0,1-2.584-2.379c0-1.409,1.161-2.348,2.83-2.348a5.792,5.792,0,0,1,1.619.243v-.129c0-.777-.442-1.117-1.6-1.117a4.194,4.194,0,0,0-2.045.55h-.081V42.595a5.413,5.413,0,0,1,2.5-.6c2.192,0,3.386,1.036,3.386,2.85v4.517H102.97Zm-.065-1.554V46.48a2.543,2.543,0,0,0-1.194-.243c-.7,0-1.129.259-1.129.842,0,.6.426.858,1.063.858A1.265,1.265,0,0,0,102.9,47.095Zm5.79-3.772a1.925,1.925,0,0,1,1.767-1.246,1.728,1.728,0,0,1,.7.129v2.04h-.081a2.49,2.49,0,0,0-.949-.162,1.358,1.358,0,0,0-1.374,1.133v4.145H106.6v-7.2h2.094Zm8.258,5.294a2.592,2.592,0,0,1-2.158.906c-1.865,0-3.059-1.683-3.059-3.756S112.93,42,114.795,42a2.6,2.6,0,0,1,2.093.826V39.243h2.159V49.362h-2.094Zm-.065-1.7V44.6a1.6,1.6,0,0,0-1.374-.745c-.948,0-1.586.68-1.586,1.91s.638,1.894,1.586,1.894A1.6,1.6,0,0,0,116.887,46.917ZM15.047,52.666H21.36V53.9H16.47v3.092H20.9v1.2H16.47v3.368h4.89v1.23H15.047Zm11.531,2.849c1.619,0,2.519,1.052,2.519,2.785v4.484H27.739V58.332a1.412,1.412,0,0,0-1.5-1.587,1.889,1.889,0,0,0-1.816,1.3v4.743H23.061V55.661h1.358V56.7A2.489,2.489,0,0,1,26.577,55.515Zm6.166.146h1.848v1.15H32.743v3.836c0,.81.425,1.085,1.194,1.085a1.756,1.756,0,0,0,.605-.1h.049v1.149a2.215,2.215,0,0,1-.85.146c-1.684,0-2.355-.761-2.355-2.153V56.81H30.143v-1.15h1.243V53.767h1.358Zm6.264,7.269A3.371,3.371,0,0,1,35.458,59.3c0-2.234,1.341-3.788,3.288-3.788,1.979,0,3.01,1.409,3.01,3.5v.615h-4.94a2.193,2.193,0,0,0,2.372,2.137,3.086,3.086,0,0,0,2.012-.648h.049V62.3A3.589,3.589,0,0,1,39.007,62.93Zm-2.142-4.4h3.582c-.049-1.052-.572-1.861-1.685-1.861A1.972,1.972,0,0,0,36.865,58.526Zm7.85-1.764A1.9,1.9,0,0,1,46.5,55.548a1.731,1.731,0,0,1,.7.113v1.327h-.049a2.115,2.115,0,0,0-.851-.145,1.651,1.651,0,0,0-1.587,1.3v4.646H43.358V55.661h1.358Zm7.1-1.246c2.143,0,3.288,1.732,3.288,3.707s-1.145,3.708-3.288,3.708A2.616,2.616,0,0,1,49.8,61.99v3.53H48.444V55.661H49.8v.809A2.577,2.577,0,0,1,51.813,55.515Zm-.229,6.2c1.341,0,2.126-1.052,2.126-2.493a2.2,2.2,0,0,0-2.126-2.493A2.033,2.033,0,0,0,49.8,57.862V60.6A2.017,2.017,0,0,0,51.584,61.715Zm6.477-4.954a1.9,1.9,0,0,1,1.783-1.214,1.729,1.729,0,0,1,.7.113v1.327H60.5a2.115,2.115,0,0,0-.851-.145,1.65,1.65,0,0,0-1.586,1.3v4.646H56.7V55.661h1.358Zm4.448-3.982a.842.842,0,1,1,0,1.683.842.842,0,1,1,0-1.683Zm-.671,2.882H63.2v7.123H61.839Zm6.2,2.963c1.03.323,2.175.744,2.175,2.1,0,1.457-1.21,2.2-2.763,2.2a4.211,4.211,0,0,1-2.437-.648V61h.065a3.542,3.542,0,0,0,2.355.793c.769,0,1.456-.292,1.456-.907,0-.631-.572-.777-1.7-1.149-1.014-.324-2.143-.7-2.143-2.04,0-1.376,1.145-2.185,2.6-2.185a3.906,3.906,0,0,1,2.208.583v1.295H69.8a3.291,3.291,0,0,0-2.126-.745c-.851,0-1.325.372-1.325.874C66.353,58.089,66.876,58.251,68.038,58.624Zm6.9,4.306A3.371,3.371,0,0,1,71.391,59.3c0-2.234,1.341-3.788,3.287-3.788,1.979,0,3.01,1.409,3.01,3.5v.615h-4.94a2.193,2.193,0,0,0,2.372,2.137,3.086,3.086,0,0,0,2.012-.648h.049V62.3A3.586,3.586,0,0,1,74.94,62.93Zm-2.143-4.4h3.581c-.048-1.052-.572-1.861-1.684-1.861A1.972,1.972,0,0,0,72.8,58.526Z"/>
    </g>
  </g>
</svg>
