<svg xmlns="http://www.w3.org/2000/svg" xmlns:xlink="http://www.w3.org/1999/xlink" width="467" height="450" viewBox="0 0 467 450">
  <defs>
    <clipPath id="clip-path">
      <rect id="Rectangle_274" data-name="Rectangle 274" width="15.197" height="19.741" fill="none"/>
    </clipPath>
    <clipPath id="clip-path-2">
      <rect id="Rectangle_276" data-name="Rectangle 276" width="198" height="55" transform="translate(0 0)" fill="none"/>
    </clipPath>
  </defs>
  <g id="Vector_Smart_Object" data-name="Vector Smart Object" transform="translate(6 0)">
    <text id="Kampd_short_for_Knowledge_Amplified_is_platform_for_professional_communities_and_content._Join_Kampd_to_build_your_own_community_around_shared_interests._" data-name="Kampd, short for ‘Knowledge Amplified’, is platform for professional communities and content. Join Kampd to build your own community around shared interests.
" transform="translate(-5 138.007)" fill="#7a7a7a" font-size="21" font-family="ProximaNova-Medium, Proxima Nova" font-weight="500" letter-spacing="-0.025em"><tspan x="0" y="19">Kampd, short for ‘Knowledge Amplified’, is platform </tspan><tspan x="0" y="46">for professional communities and content. Join </tspan><tspan x="0" y="73">Kampd to build your own community around shared </tspan><tspan x="0" y="100">interests.</tspan><tspan font-family="ProximaNova-Medium"><tspan x="0" y="127"></tspan></tspan></text>
    <g id="Group_457" data-name="Group 457">
      <rect id="Rectangle_21" data-name="Rectangle 21" width="285" height="57" rx="28" transform="translate(-5 392)" fill="none" stroke="#e3e3e3" stroke-width="2"/>
      <circle id="Ellipse_5" data-name="Ellipse 5" cx="20" cy="20" r="20" transform="translate(231 401)" fill="red"/>
      <g id="Vector_Smart_Object-2" data-name="Vector Smart Object" transform="translate(-781 -7703)">
        <g id="Vector_Smart_Object-3" data-name="Vector Smart Object" transform="matrix(0, -1, 1, 0, 1023, 8132)">
          <g id="Group_369" data-name="Group 369">
            <g id="Group_368" data-name="Group 368" clip-path="url(#clip-path)">
              <path id="Path_4488" data-name="Path 4488" d="M8.383,19.457l6.4-5.528a1.173,1.173,0,0,0,.119-1.672,1.259,1.259,0,0,0-1.694-.117L8.8,15.953V1.185a1.2,1.2,0,0,0-2.4,0V15.953L1.984,12.141a1.272,1.272,0,0,0-1.694.117A1.189,1.189,0,0,0,.408,13.93l6.4,5.528a1.236,1.236,0,0,0,1.575,0Z"/>
            </g>
          </g>
        </g>
        <path id="Color_Overlay" data-name="Color Overlay" d="M1035.258,8131.711a1.272,1.272,0,0,1-.116-1.694l3.812-4.412h-14.77a1.2,1.2,0,0,1,0-2.4h14.77l-3.812-4.412a1.258,1.258,0,0,1,.116-1.694,1.172,1.172,0,0,1,1.671.119l5.527,6.4a1.223,1.223,0,0,1,.284.773,1.345,1.345,0,0,1-.284.8l-5.527,6.4a1.207,1.207,0,0,1-.913.41A1.106,1.106,0,0,1,1035.258,8131.711Z" fill="#fff"/>
      </g>
      <text id="Visit_the_Kampd_website" data-name="Visit the Kampd website" transform="translate(15.149 427.168)" fill="#6b6f73" font-size="18" font-family="ProximaNova-Semibold, Proxima Nova" font-weight="600" letter-spacing="-0.025em"><tspan x="0" y="0">Visit the Kampd website</tspan></text>
    </g>
    <path id="Path_4490" data-name="Path 4490" d="M0,0V42.408H7.007v-13.3l12.012,13.3h9.209L13.914,27.4,27.728,12.894H18.719L7.107,25.787V0Z" fill="#0c0c0c"/>
    <g id="Group_373" data-name="Group 373">
      <g id="Group_372" data-name="Group 372" clip-path="url(#clip-path-2)">
        <path id="Path_4491" data-name="Path 4491" d="M27.828,28c0-9.368,6.507-15.815,15.816-15.815,9.209,0,15.616,6.245,15.616,15.815V42.509H52.753V36.667c-1.8,4.332-5.806,6.548-10.411,6.548-7.107,0-14.515-5.137-14.515-15.211m24.425-.3c0-5.238-3.4-8.864-8.609-8.864s-8.709,3.727-8.709,8.864c0,5.238,3.5,8.864,8.709,8.864s8.609-3.727,8.609-8.864" fill="#0c0c0c"/>
        <path id="Path_4492" data-name="Path 4492" d="M64.665,25.586c0-9.267,5.305-13.4,12.312-13.4,4.4,0,8.008,1.813,10.11,5.339,2-3.526,5.706-5.44,10.11-5.44,6.907,0,12.312,4.231,12.312,13.4V42.308H102.4V25.586c0-4.835-2.5-6.85-5.906-6.85s-5.906,2.015-5.906,6.85V42.408H83.484V25.586c0-4.734-2.5-6.85-5.906-6.85s-5.906,2.015-5.906,6.85V42.408H64.565Z" fill="#0c0c0c"/>
        <path id="Path_4493" data-name="Path 4493" d="M114.916,27.9c0-9.57,6.406-15.815,15.616-15.815,9.309,0,15.816,6.447,15.816,15.815,0,10.073-7.508,15.211-14.615,15.211a11.3,11.3,0,0,1-9.81-5.037V55h-7.107Zm24.325-.2c0-5.238-3.5-8.864-8.709-8.864s-8.609,3.727-8.609,8.864c0,5.238,3.4,8.864,8.609,8.864s8.709-3.727,8.709-8.864" fill="#0c0c0c"/>
        <path id="Path_4494" data-name="Path 4494" d="M149.251,27.4c0-10.073,7.508-15.211,14.615-15.211a11.3,11.3,0,0,1,9.81,5.037V0h7.107V27.4c0,9.57-6.406,15.815-15.616,15.815-9.309,0-15.916-6.447-15.916-15.815m24.425.3c0-5.238-3.4-8.864-8.609-8.864s-8.709,3.727-8.709,8.864c0,5.238,3.5,8.864,8.709,8.864s8.609-3.727,8.609-8.864" fill="#0c0c0c"/>
        <path id="Path_4495" data-name="Path 4495" d="M185.187,37.07a6.407,6.407,0,1,1,6.406,6.447,6.345,6.345,0,0,1-6.406-6.447" fill="#ec1e24"/>
      </g>
    </g>
  </g>
</svg>
