<svg xmlns="http://www.w3.org/2000/svg" xmlns:xlink="http://www.w3.org/1999/xlink" width="219" height="38" viewBox="0 0 219 38">
  <defs>
    <clipPath id="clip-path">
      <rect id="Rectangle_105" data-name="Rectangle 105" width="219" height="38" transform="translate(0 0)" fill="none"/>
    </clipPath>
  </defs>
  <g id="Logo_copy" data-name="Logo copy" transform="translate(-112 -3755)">
    <g id="Logo_copy-2" data-name="Logo copy" transform="translate(112 3755)">
      <g id="Group_168" data-name="Group 168">
        <g id="Group_167" data-name="Group 167" clip-path="url(#clip-path)">
          <path id="Path_409" data-name="Path 409" d="M57.026,28.1a10.288,10.288,0,0,1-4.356-.858,8.54,8.54,0,0,1-3.036-2.271,9.7,9.7,0,0,1-1.767-3.183,11.426,11.426,0,0,1-.589-3.63V17.48a11.537,11.537,0,0,1,.589-3.665,9.7,9.7,0,0,1,1.767-3.183,8.491,8.491,0,0,1,2.982-2.253,9.846,9.846,0,0,1,4.2-.84A9.252,9.252,0,0,1,61.989,8.9,8.6,8.6,0,0,1,65.1,12.42a10.673,10.673,0,0,1,1.036,4.667v1.68H49.064V15.942H63.31l-1.143,1.43a8.432,8.432,0,0,0-.607-3.344,4.788,4.788,0,0,0-1.785-2.182,6.074,6.074,0,0,0-6.07.09,5.1,5.1,0,0,0-1.857,2.36,9.411,9.411,0,0,0-.607,3.54,9.229,9.229,0,0,0,.607,3.451,5.117,5.117,0,0,0,1.892,2.4,6.6,6.6,0,0,0,6.57,0,3.526,3.526,0,0,0,1.571-2.056h3.892a7.737,7.737,0,0,1-1.589,3.433,7.832,7.832,0,0,1-3.017,2.253,10.353,10.353,0,0,1-4.142.787"/>
          <path id="Path_410" data-name="Path 410" d="M77.65,28.1a10.268,10.268,0,0,1-4.3-.84,8.371,8.371,0,0,1-3.034-2.289,9.935,9.935,0,0,1-1.786-3.219,11.3,11.3,0,0,1-.589-3.594v-.644a11.2,11.2,0,0,1,.607-3.665,9.819,9.819,0,0,1,1.821-3.2,8.74,8.74,0,0,1,3.017-2.271,9.938,9.938,0,0,1,4.231-.84,10.1,10.1,0,0,1,4.409.93A7.834,7.834,0,0,1,85.147,11.1a7.64,7.64,0,0,1,1.321,3.951H82.434a4.332,4.332,0,0,0-1.446-2.718,4.862,4.862,0,0,0-3.375-1.108,4.911,4.911,0,0,0-4.892,3.2,8.966,8.966,0,0,0-.607,3.415A9.131,9.131,0,0,0,72.7,21.2a5.041,5.041,0,0,0,1.821,2.361,5.341,5.341,0,0,0,3.125.858,5.647,5.647,0,0,0,2.517-.519,4.55,4.55,0,0,0,1.7-1.395,3.968,3.968,0,0,0,.75-2.021h4.07a7.341,7.341,0,0,1-1.321,4.023,8.156,8.156,0,0,1-3.213,2.646,10.387,10.387,0,0,1-4.5.948"/>
          <path id="Path_411" data-name="Path 411" d="M98.608,28.1a11.088,11.088,0,0,1-4.464-.84A9.8,9.8,0,0,1,90.9,25.025a9.5,9.5,0,0,1-2-3.165,10.158,10.158,0,0,1-.678-3.666V17.48a10.065,10.065,0,0,1,.7-3.683,9.773,9.773,0,0,1,2.035-3.2,9.673,9.673,0,0,1,3.267-2.235,11.1,11.1,0,0,1,4.392-.822,10.973,10.973,0,0,1,4.374.822,9.922,9.922,0,0,1,3.267,2.235,9.622,9.622,0,0,1,2.053,3.2,10.066,10.066,0,0,1,.7,3.683v.715a10.158,10.158,0,0,1-.679,3.666,9.515,9.515,0,0,1-2,3.165,9.8,9.8,0,0,1-3.249,2.235,11.089,11.089,0,0,1-4.463.84m0-3.648a6.176,6.176,0,0,0,3.356-.876,5.7,5.7,0,0,0,2.124-2.378,7.571,7.571,0,0,0,.732-3.361,7.5,7.5,0,0,0-.75-3.4,5.83,5.83,0,0,0-2.142-2.378,6.728,6.728,0,0,0-6.641,0,5.827,5.827,0,0,0-2.142,2.378,7.5,7.5,0,0,0-.75,3.4,7.571,7.571,0,0,0,.732,3.361,5.7,5.7,0,0,0,2.125,2.378,6.172,6.172,0,0,0,3.356.876"/>
          <path id="Path_412" data-name="Path 412" d="M118.813,28.1a9.8,9.8,0,0,1-6.052-1.645,5.674,5.674,0,0,1-2.267-4.541h3.856a2.845,2.845,0,0,0,1.107,1.967,5.162,5.162,0,0,0,3.392.894,5.469,5.469,0,0,0,3.142-.787,2.325,2.325,0,0,0,1.143-1.967,2.009,2.009,0,0,0-.839-1.7,5.991,5.991,0,0,0-2.839-.84l-1.892-.179a8.679,8.679,0,0,1-4.7-1.752,4.745,4.745,0,0,1-1.732-3.862,5.375,5.375,0,0,1,.964-3.254A6.168,6.168,0,0,1,114.76,8.4a9.994,9.994,0,0,1,3.91-.715A9.25,9.25,0,0,1,124.2,9.2a5.316,5.316,0,0,1,2.178,4.452h-3.821a2.492,2.492,0,0,0-1.035-1.859,4.592,4.592,0,0,0-2.857-.751,4.468,4.468,0,0,0-2.731.715,2.2,2.2,0,0,0-.947,1.824,1.906,1.906,0,0,0,.714,1.574,4.562,4.562,0,0,0,2.321.751l1.892.179a10.268,10.268,0,0,1,5.16,1.806,4.765,4.765,0,0,1,1.91,4.023,5.31,5.31,0,0,1-1.036,3.254,6.693,6.693,0,0,1-2.874,2.164,11,11,0,0,1-4.267.769"/>
          <path id="Path_413" data-name="Path 413" d="M133.7,27.028,127.168,8.182h4.249l6.249,18.846ZM128.811,35V31.32h3.178a5.882,5.882,0,0,0,1.892-.268,2.651,2.651,0,0,0,1.286-.93,5.462,5.462,0,0,0,.821-1.771l5.606-20.169h4.034l-6.069,21.171a9.052,9.052,0,0,1-1.589,3.254,5.861,5.861,0,0,1-2.571,1.824,10.833,10.833,0,0,1-3.732.572Zm5.927-11.372h4.142v3.4h-4.142Z"/>
          <path id="Path_414" data-name="Path 414" d="M154.318,28.1a9.8,9.8,0,0,1-6.052-1.645A5.674,5.674,0,0,1,146,21.915h3.856a2.847,2.847,0,0,0,1.107,1.967,5.163,5.163,0,0,0,3.392.894,5.472,5.472,0,0,0,3.142-.787,2.325,2.325,0,0,0,1.143-1.967,2.009,2.009,0,0,0-.839-1.7,5.989,5.989,0,0,0-2.839-.84l-1.892-.179a8.679,8.679,0,0,1-4.7-1.752,4.746,4.746,0,0,1-1.732-3.862,5.378,5.378,0,0,1,.964-3.254,6.171,6.171,0,0,1,2.66-2.039,9.994,9.994,0,0,1,3.91-.715,9.25,9.25,0,0,1,5.534,1.52,5.318,5.318,0,0,1,2.179,4.452h-3.821a2.492,2.492,0,0,0-1.035-1.859,4.59,4.59,0,0,0-2.857-.751,4.468,4.468,0,0,0-2.731.715,2.195,2.195,0,0,0-.946,1.824,1.9,1.9,0,0,0,.714,1.574,4.56,4.56,0,0,0,2.321.751l1.893.179a10.268,10.268,0,0,1,5.16,1.806,4.765,4.765,0,0,1,1.91,4.023,5.309,5.309,0,0,1-1.036,3.254,6.7,6.7,0,0,1-2.874,2.164,11,11,0,0,1-4.267.769"/>
          <path id="Path_415" data-name="Path 415" d="M163.152,8.612h13.425v3.112H163.152ZM173.685,28.1a11.106,11.106,0,0,1-4.035-.644,4.66,4.66,0,0,1-2.482-2.217,9.1,9.1,0,0,1-.839-4.256V3h3.964V21.343a3.124,3.124,0,0,0,.8,2.306,3.062,3.062,0,0,0,2.267.8h3.213V28.1Z"/>
          <path id="Path_416" data-name="Path 416" d="M178.9,28.1V8.826h3.321v8.3h-.393a13.927,13.927,0,0,1,.732-4.828,6.163,6.163,0,0,1,2.214-3,6.292,6.292,0,0,1,3.7-1.037h.179a6.358,6.358,0,0,1,3.731,1.037,6.166,6.166,0,0,1,2.214,3,13.926,13.926,0,0,1,.732,4.828h-1.143a13.62,13.62,0,0,1,.75-4.828,6.223,6.223,0,0,1,2.249-3,6.377,6.377,0,0,1,3.714-1.037h.178a6.443,6.443,0,0,1,3.749,1.037,6.223,6.223,0,0,1,2.249,3,13.62,13.62,0,0,1,.75,4.828V28.1h-4.177V16.515a4.773,4.773,0,0,0-1.053-3.291,3.7,3.7,0,0,0-2.91-1.18,3.984,3.984,0,0,0-3.071,1.234,4.832,4.832,0,0,0-1.143,3.415V28.1h-4.213V16.515a4.825,4.825,0,0,0-1.035-3.291,3.648,3.648,0,0,0-2.892-1.18,4.039,4.039,0,0,0-3.088,1.234,4.788,4.788,0,0,0-1.16,3.415V28.1Z"/>
          <path id="Path_417" data-name="Path 417" d="M211.557,24.373V24.1a3.722,3.722,0,1,1,7.444,0v.275a3.722,3.722,0,1,1-7.444,0" fill="#ff2b00"/>
          <path id="Path_418" data-name="Path 418" d="M27.091,27a2.979,2.979,0,0,1-2.977,2.982l-21.138,0a2.984,2.984,0,0,1,0-5.967H24.113A2.978,2.978,0,0,1,27.091,27" fill="#a91e23"/>
          <path id="Path_419" data-name="Path 419" d="M31.5,18.987a2.98,2.98,0,0,1-2.976,2.983l-25.545,0a2.981,2.981,0,0,1,0-5.963H28.524A2.979,2.979,0,0,1,31.5,18.987" fill="#d32027"/>
          <path id="Path_420" data-name="Path 420" d="M20.535,10.974a2.981,2.981,0,0,1-2.979,2.981H2.978a2.983,2.983,0,0,1,0-5.966H17.555a2.983,2.983,0,0,1,2.979,2.985" fill="#ec2024"/>
          <path id="Path_421" data-name="Path 421" d="M39.3,35.015A2.978,2.978,0,0,1,36.318,38L2.985,38a2.983,2.983,0,0,1,0-5.966H36.318A2.98,2.98,0,0,1,39.3,35.015" fill="#801517"/>
          <path id="Path_422" data-name="Path 422" d="M36.692,2.982a2.98,2.98,0,0,1-2.978,2.982H2.978A2.982,2.982,0,0,1,2.978,0H33.714a2.981,2.981,0,0,1,2.978,2.982" fill="#ed322a"/>
        </g>
      </g>
    </g>
    <path id="Color_Overlay" data-name="Color Overlay" d="M112.007,3790.017a2.978,2.978,0,0,1,2.976-2.981h33.335a2.982,2.982,0,0,1,0,5.964H114.984A2.978,2.978,0,0,1,112.007,3790.017Zm128.8-.014v-3.682h3.178a5.881,5.881,0,0,0,1.892-.27,2.645,2.645,0,0,0,1.286-.929,5.468,5.468,0,0,0,.821-1.771l.367-1.322H245.7l-6.534-18.847h4.248l5.122,15.449h.761l4.294-15.449h4.033l-6.068,21.171a9.069,9.069,0,0,1-1.59,3.255,5.866,5.866,0,0,1-2.57,1.823,10.821,10.821,0,0,1-3.732.572ZM112,3782a2.981,2.981,0,0,1,2.979-2.982h21.135a2.983,2.983,0,0,1,0,5.966l-21.137,0A2.983,2.983,0,0,1,112,3782Zm203.642,1.1v-11.587a4.77,4.77,0,0,0-1.055-3.291,3.7,3.7,0,0,0-2.909-1.179,3.985,3.985,0,0,0-3.071,1.234,4.83,4.83,0,0,0-1.143,3.415V3783.1h-4.213v-11.587a4.826,4.826,0,0,0-1.035-3.291,3.647,3.647,0,0,0-2.893-1.179,4.036,4.036,0,0,0-3.087,1.234,4.782,4.782,0,0,0-1.161,3.415V3783.1H290.9v-19.275h3.32v4.585a9.9,9.9,0,0,1,.339-1.117,6.168,6.168,0,0,1,2.214-3,6.3,6.3,0,0,1,3.7-1.037h.178a6.362,6.362,0,0,1,3.732,1.037,6.174,6.174,0,0,1,2.214,3c.059.16.115.324.168.493.054-.169.11-.333.171-.493a6.225,6.225,0,0,1,2.249-3,6.384,6.384,0,0,1,3.713-1.037h.178a6.446,6.446,0,0,1,3.75,1.037,6.219,6.219,0,0,1,2.249,3,13.6,13.6,0,0,1,.749,4.828V3783.1Zm-29.957,0a11.114,11.114,0,0,1-4.035-.644,4.664,4.664,0,0,1-2.482-2.218,9.1,9.1,0,0,1-.839-4.256v-9.261h-3.178v-3.112h3.178V3758h3.963v5.615h6.285v3.112h-6.285v9.619a3.126,3.126,0,0,0,.8,2.307,3.063,3.063,0,0,0,2.267.8h3.214v3.648Zm-25.419-1.646a5.669,5.669,0,0,1-2.267-4.541h3.855a2.851,2.851,0,0,0,1.107,1.967,5.166,5.166,0,0,0,3.392.893,5.477,5.477,0,0,0,3.143-.786,2.324,2.324,0,0,0,1.142-1.967,2.011,2.011,0,0,0-.839-1.7,5.987,5.987,0,0,0-2.84-.84l-1.892-.179a8.68,8.68,0,0,1-4.695-1.752,4.745,4.745,0,0,1-1.732-3.862,5.383,5.383,0,0,1,.963-3.255,6.177,6.177,0,0,1,2.66-2.038,9.992,9.992,0,0,1,3.91-.715,9.255,9.255,0,0,1,5.535,1.519,5.318,5.318,0,0,1,2.178,4.452h-3.821a2.492,2.492,0,0,0-1.035-1.859,4.591,4.591,0,0,0-2.858-.75,4.463,4.463,0,0,0-2.73.714,2.194,2.194,0,0,0-.946,1.825,1.905,1.905,0,0,0,.714,1.573,4.562,4.562,0,0,0,2.321.751l1.892.179a10.269,10.269,0,0,1,5.159,1.807,4.762,4.762,0,0,1,1.91,4.023,5.305,5.305,0,0,1-1.036,3.253,6.68,6.68,0,0,1-2.874,2.164,11,11,0,0,1-4.267.77A9.8,9.8,0,0,1,260.266,3781.456Zm-35.5,0a5.673,5.673,0,0,1-2.267-4.541h3.856a2.847,2.847,0,0,0,1.107,1.967,5.162,5.162,0,0,0,3.392.893,5.474,5.474,0,0,0,3.142-.786,2.326,2.326,0,0,0,1.142-1.967,2.011,2.011,0,0,0-.839-1.7,5.987,5.987,0,0,0-2.84-.84l-1.891-.179a8.686,8.686,0,0,1-4.7-1.752,4.745,4.745,0,0,1-1.732-3.862,5.384,5.384,0,0,1,.964-3.255,6.172,6.172,0,0,1,2.66-2.038,9.986,9.986,0,0,1,3.91-.715,9.25,9.25,0,0,1,5.534,1.519,5.318,5.318,0,0,1,2.178,4.452h-3.82a2.491,2.491,0,0,0-1.035-1.859,4.6,4.6,0,0,0-2.857-.75,4.47,4.47,0,0,0-2.732.714,2.2,2.2,0,0,0-.946,1.825,1.905,1.905,0,0,0,.714,1.573,4.566,4.566,0,0,0,2.322.751l1.891.179a10.262,10.262,0,0,1,5.159,1.807,4.762,4.762,0,0,1,1.911,4.023,5.3,5.3,0,0,1-1.037,3.253,6.683,6.683,0,0,1-2.873,2.164,11,11,0,0,1-4.268.77A9.8,9.8,0,0,1,224.761,3781.456Zm-39.415.805a8.375,8.375,0,0,1-3.034-2.288,9.94,9.94,0,0,1-1.786-3.219,11.268,11.268,0,0,1-.589-3.594v-.643a11.2,11.2,0,0,1,.607-3.665,9.838,9.838,0,0,1,1.821-3.2,8.742,8.742,0,0,1,3.016-2.271,9.942,9.942,0,0,1,4.232-.84,10.1,10.1,0,0,1,4.409.931,7.831,7.831,0,0,1,3.124,2.627,7.643,7.643,0,0,1,1.321,3.952h-4.034a4.331,4.331,0,0,0-1.446-2.719,4.864,4.864,0,0,0-3.375-1.108,4.912,4.912,0,0,0-4.892,3.2,8.969,8.969,0,0,0-.607,3.415,9.147,9.147,0,0,0,.589,3.361,5.057,5.057,0,0,0,1.821,2.361,5.351,5.351,0,0,0,3.125.858,5.636,5.636,0,0,0,2.517-.519,4.545,4.545,0,0,0,1.7-1.395,3.962,3.962,0,0,0,.75-2.021h4.07a7.34,7.34,0,0,1-1.321,4.024,8.151,8.151,0,0,1-3.213,2.646,11.282,11.282,0,0,1-8.8.108Zm-20.676-.018a8.553,8.553,0,0,1-3.036-2.27,9.711,9.711,0,0,1-1.768-3.184,11.43,11.43,0,0,1-.588-3.63v-.679a11.541,11.541,0,0,1,.588-3.665,9.72,9.72,0,0,1,1.768-3.184,8.507,8.507,0,0,1,2.982-2.252,9.84,9.84,0,0,1,4.194-.84,9.249,9.249,0,0,1,5.178,1.359,8.609,8.609,0,0,1,3.105,3.522,10.665,10.665,0,0,1,1.037,4.667v1.68H163.279a8.639,8.639,0,0,0,.57,2.521,5.106,5.106,0,0,0,1.892,2.4,6.591,6.591,0,0,0,6.569,0,3.523,3.523,0,0,0,1.572-2.055h3.891a7.734,7.734,0,0,1-1.588,3.433,7.823,7.823,0,0,1-3.019,2.253,11.382,11.382,0,0,1-8.5-.071Zm1.036-15.306a5.107,5.107,0,0,0-1.857,2.36,7.922,7.922,0,0,0-.457,1.646h10.682a7.352,7.352,0,0,0-.513-1.913,4.8,4.8,0,0,0-1.786-2.182,6.069,6.069,0,0,0-6.069.089Zm157.851,12.437v-.275a3.722,3.722,0,0,1,7.443-.079v.433a3.722,3.722,0,0,1-7.443-.079Zm-117.412,2.886a9.78,9.78,0,0,1-3.249-2.235,9.486,9.486,0,0,1-2-3.164,10.179,10.179,0,0,1-.678-3.667v-.715a10.051,10.051,0,0,1,.7-3.682,9.782,9.782,0,0,1,2.035-3.2,9.681,9.681,0,0,1,3.267-2.235,11.1,11.1,0,0,1,4.392-.822,10.976,10.976,0,0,1,4.374.822,9.942,9.942,0,0,1,3.267,2.235,9.617,9.617,0,0,1,2.052,3.2,10.052,10.052,0,0,1,.7,3.682v.715a10.159,10.159,0,0,1-.679,3.667,9.516,9.516,0,0,1-2,3.164,9.78,9.78,0,0,1-3.249,2.235,12.269,12.269,0,0,1-8.926,0Zm1.143-15.2a5.81,5.81,0,0,0-2.143,2.378,8.073,8.073,0,0,0-.018,6.758,5.7,5.7,0,0,0,2.125,2.379,6.868,6.868,0,0,0,6.712,0,5.705,5.705,0,0,0,2.125-2.379,8.078,8.078,0,0,0-.017-6.758,5.824,5.824,0,0,0-2.143-2.378,6.726,6.726,0,0,0-6.641,0Zm-92.309,9.9a2.981,2.981,0,0,1,0-5.963h25.546a2.982,2.982,0,0,1,0,5.964Zm0-8.012a2.983,2.983,0,0,1,0-5.966h14.577a2.983,2.983,0,0,1,0,5.966Zm0-7.991a2.982,2.982,0,0,1,0-5.964h30.736a2.982,2.982,0,0,1,0,5.964Z" fill="#fff"/>
  </g>
</svg>
