<svg id="Vector_Smart_Object" data-name="Vector Smart Object" xmlns="http://www.w3.org/2000/svg" xmlns:xlink="http://www.w3.org/1999/xlink" width="161" height="34" viewBox="0 0 161 34">
  <defs>
    <clipPath id="clip-path">
      <rect id="Rectangle_270" data-name="Rectangle 270" width="161" height="34" fill="none"/>
    </clipPath>
  </defs>
  <g id="Group_360" data-name="Group 360">
    <g id="Group_359" data-name="Group 359" clip-path="url(#clip-path)">
      <path id="Path_4473" data-name="Path 4473" d="M66.956,6.8V27.2H63.379V11.192h-.048L56.941,27.2H54.557L48.023,11.192h-.048V27.2H44.685V6.8h5.15l5.914,15.111h.1L62.092,6.8Zm2.957,1.558a1.788,1.788,0,0,1,.62-1.417,2.144,2.144,0,0,1,1.478-.567,2.1,2.1,0,0,1,1.526.567,1.954,1.954,0,0,1,.62,1.417,1.788,1.788,0,0,1-.62,1.417,2.178,2.178,0,0,1-1.526.567,1.986,1.986,0,0,1-1.478-.567,2.128,2.128,0,0,1-.62-1.417M73.776,27.2H70.294V12.561h3.481Zm10.539-2.5a4.051,4.051,0,0,0,1.717-.378,7.556,7.556,0,0,0,1.717-.944v3.211a6.122,6.122,0,0,1-1.908.708,11.847,11.847,0,0,1-2.337.236,6.99,6.99,0,0,1-7.344-7.225,8.284,8.284,0,0,1,2.1-5.808,7.589,7.589,0,0,1,5.914-2.267,8.86,8.86,0,0,1,1.955.236,6.539,6.539,0,0,1,1.574.567v3.306a6.947,6.947,0,0,0-1.621-.9,5.527,5.527,0,0,0-1.717-.331,4.372,4.372,0,0,0-3.338,1.322,4.924,4.924,0,0,0-1.24,3.589,4.7,4.7,0,0,0,1.24,3.447A4.485,4.485,0,0,0,84.315,24.7M97.621,12.325a3.892,3.892,0,0,1,.763.047,4.989,4.989,0,0,1,.572.142v3.494a2.15,2.15,0,0,0-.811-.378,4.938,4.938,0,0,0-1.288-.189,2.675,2.675,0,0,0-2.146,1.086,5.178,5.178,0,0,0-.906,3.306V27.2H90.324V12.561h3.481v2.314h.048a4.453,4.453,0,0,1,1.431-1.889,4.233,4.233,0,0,1,2.337-.661m1.526,7.792a8.109,8.109,0,0,1,2.051-5.761,7.629,7.629,0,0,1,5.723-2.125,7.048,7.048,0,0,1,5.389,2.031,7.751,7.751,0,0,1,1.955,5.525,7.951,7.951,0,0,1-2.051,5.667,7.478,7.478,0,0,1-5.627,2.125,7.388,7.388,0,0,1-5.437-1.983,7.535,7.535,0,0,1-2-5.478m3.624-.142a5.115,5.115,0,0,0,1.049,3.494,3.83,3.83,0,0,0,3,1.228,3.487,3.487,0,0,0,2.909-1.228,5.477,5.477,0,0,0,1-3.589,5.655,5.655,0,0,0-1-3.589,4.007,4.007,0,0,0-5.818.047,5.14,5.14,0,0,0-1.145,3.636m16.691-3.542a1.491,1.491,0,0,0,.477,1.181,8.187,8.187,0,0,0,2.1,1.039,7.279,7.279,0,0,1,2.909,1.842,3.8,3.8,0,0,1,.858,2.5,3.951,3.951,0,0,1-1.621,3.306,6.76,6.76,0,0,1-4.34,1.228,11.406,11.406,0,0,1-2.051-.236,8.313,8.313,0,0,1-1.908-.567v-3.4a8.364,8.364,0,0,0,2.051,1.039,6.485,6.485,0,0,0,2,.378,3.232,3.232,0,0,0,1.717-.331,1.156,1.156,0,0,0,.572-1.086,1.656,1.656,0,0,0-.572-1.228,8.836,8.836,0,0,0-2.194-1.133,6.562,6.562,0,0,1-2.718-1.794,3.988,3.988,0,0,1-.811-2.55,4.01,4.01,0,0,1,1.574-3.258,6.341,6.341,0,0,1,4.1-1.275,7.634,7.634,0,0,1,1.717.189c.62.142,1.192.283,1.621.425v3.353a10.313,10.313,0,0,0-1.621-.8,5.091,5.091,0,0,0-1.812-.331,2.679,2.679,0,0,0-1.526.378,1.5,1.5,0,0,0-.525,1.133m7.821,3.683a8.109,8.109,0,0,1,2.051-5.761,7.629,7.629,0,0,1,5.723-2.125,7.048,7.048,0,0,1,5.389,2.031,7.751,7.751,0,0,1,1.955,5.525,7.951,7.951,0,0,1-2.051,5.667,7.478,7.478,0,0,1-5.627,2.125,7.387,7.387,0,0,1-5.437-1.983,7.739,7.739,0,0,1-2-5.478m3.624-.142a5.115,5.115,0,0,0,1.049,3.494,3.83,3.83,0,0,0,3,1.228,3.487,3.487,0,0,0,2.909-1.228,5.477,5.477,0,0,0,1-3.589,5.655,5.655,0,0,0-1-3.589,4.007,4.007,0,0,0-5.818.047,5.372,5.372,0,0,0-1.145,3.636m23.082-4.581h-5.2V27.2h-3.529V15.394h-2.48V12.561h2.48V10.531a5.136,5.136,0,0,1,1.526-3.778,5.24,5.24,0,0,1,3.863-1.464c.429,0,.811.047,1.145.047a2.3,2.3,0,0,1,.858.189V8.5a5.878,5.878,0,0,0-.62-.236,3.2,3.2,0,0,0-1-.142,2.163,2.163,0,0,0-1.669.661,2.99,2.99,0,0,0-.572,1.983v1.747h5.2V9.208l3.481-1.039v4.344H161v2.833h-3.529v6.847a3.12,3.12,0,0,0,.477,1.889,2,2,0,0,0,1.574.567,2.374,2.374,0,0,0,.715-.142,2.5,2.5,0,0,0,.715-.331v2.833a3.35,3.35,0,0,1-1.1.331,8.344,8.344,0,0,1-1.526.142,4.333,4.333,0,0,1-3.291-1.133,4.96,4.96,0,0,1-1.1-3.494Z" fill="#737373"/>
      <rect id="Rectangle_266" data-name="Rectangle 266" width="16.31" height="16.15" fill="#f25022"/>
      <rect id="Rectangle_267" data-name="Rectangle 267" width="16.31" height="16.15" transform="translate(18.027)" fill="#7fba00"/>
      <rect id="Rectangle_268" data-name="Rectangle 268" width="16.31" height="16.15" transform="translate(0 17.85)" fill="#00a4ef"/>
      <rect id="Rectangle_269" data-name="Rectangle 269" width="16.31" height="16.15" transform="translate(18.027 17.85)" fill="#ffb900"/>
    </g>
  </g>
</svg>
