<svg id="Twitter" xmlns="http://www.w3.org/2000/svg" xmlns:xlink="http://www.w3.org/1999/xlink" width="37" height="29" viewBox="0 0 37 29">
  <defs>
    <clipPath id="clip-path">
      <rect id="Rectangle_94" data-name="Rectangle 94" width="37" height="29" fill="none"/>
    </clipPath>
  </defs>
  <g id="Group_152" data-name="Group 152">
    <g id="Group_151" data-name="Group 151" clip-path="url(#clip-path)">
      <path id="Path_332" data-name="Path 332" d="M37,3.429a15.727,15.727,0,0,1-4.365,1.162A7.421,7.421,0,0,0,35.976.533a15.5,15.5,0,0,1-4.823,1.776A7.682,7.682,0,0,0,25.619,0a7.46,7.46,0,0,0-7.592,7.32,7.153,7.153,0,0,0,.2,1.67A21.841,21.841,0,0,1,2.581,1.336,7.083,7.083,0,0,0,1.553,5.022a7.257,7.257,0,0,0,3.376,6.1A7.893,7.893,0,0,1,1.487,10.2v.086a7.4,7.4,0,0,0,6.087,7.181,7.745,7.745,0,0,1-1.995.263A8.282,8.282,0,0,1,4.149,17.6a7.584,7.584,0,0,0,7.089,5.086A15.612,15.612,0,0,1,1.81,25.819a15.426,15.426,0,0,1-1.81-.1A22.135,22.135,0,0,0,11.638,29a21.056,21.056,0,0,0,21.6-20.834c0-.317-.01-.633-.026-.945A14.723,14.723,0,0,0,37,3.429" fill="#03a9f4"/>
    </g>
  </g>
</svg>
