<svg xmlns="http://www.w3.org/2000/svg" width="374.001" height="65.999" viewBox="0 0 374.001 65.999">
  <g id="Vector_Smart_Object_copy_9" data-name="Vector Smart Object copy 9" transform="translate(-1058.763 -667.81)">
    <g id="Group_346" data-name="Group 346">
      <path id="Path_4426" data-name="Path 4426" d="M1105.03,714.7a5.131,5.131,0,0,1-5.085,5.18l-36.1,0a5.185,5.185,0,0,1,0-10.368h36.1a5.132,5.132,0,0,1,5.085,5.184" fill="#fff"/>
      <path id="Path_4427" data-name="Path 4427" d="M1112.557,700.787a5.134,5.134,0,0,1-5.083,5.18l-43.623,0a5.179,5.179,0,0,1,0-10.357h43.623a5.132,5.132,0,0,1,5.083,5.18" fill="#fff"/>
      <path id="Path_4428" data-name="Path 4428" d="M1093.834,686.87a5.134,5.134,0,0,1-5.088,5.177h-24.9a5.181,5.181,0,0,1,0-10.36l24.9,0a5.141,5.141,0,0,1,5.088,5.186" fill="#fff"/>
      <path id="Path_4429" data-name="Path 4429" d="M1125.874,728.625a5.127,5.127,0,0,1-5.085,5.18l-56.927,0a5.181,5.181,0,0,1,0-10.36h56.93a5.129,5.129,0,0,1,5.085,5.176" fill="#fff"/>
      <path id="Path_4430" data-name="Path 4430" d="M1121.426,672.99a5.133,5.133,0,0,1-5.085,5.18H1063.85a5.181,5.181,0,0,1,0-10.36h52.491a5.134,5.134,0,0,1,5.085,5.18" fill="#fff"/>
      <path id="Path_4431" data-name="Path 4431" d="M1156.151,712.765a17.309,17.309,0,0,1-7.44-1.492,14.56,14.56,0,0,1-5.181-3.944,16.958,16.958,0,0,1-3.019-5.525,20.143,20.143,0,0,1-1.005-6.307v-1.18a20.311,20.311,0,0,1,1.005-6.365,16.966,16.966,0,0,1,3.019-5.531,14.505,14.505,0,0,1,5.092-3.909,16.517,16.517,0,0,1,7.163-1.459,15.582,15.582,0,0,1,8.841,2.359,14.855,14.855,0,0,1,5.307,6.115,18.814,18.814,0,0,1,1.766,8.109v2.918h-29.145v-4.908h24.33l-1.954,2.483a14.843,14.843,0,0,0-1.035-5.8,8.29,8.29,0,0,0-3.049-3.789,10.23,10.23,0,0,0-10.366.153,8.859,8.859,0,0,0-3.171,4.1,16.564,16.564,0,0,0-1.036,6.148,16.247,16.247,0,0,0,1.036,5.994,8.857,8.857,0,0,0,3.233,4.161,11.089,11.089,0,0,0,11.216,0,6.1,6.1,0,0,0,2.684-3.572h6.646a13.544,13.544,0,0,1-2.711,5.964,13.375,13.375,0,0,1-5.154,3.911,17.378,17.378,0,0,1-7.073,1.368" fill="#fff"/>
      <path id="Path_4432" data-name="Path 4432" d="M1191.371,712.765a17.292,17.292,0,0,1-7.347-1.459,14.315,14.315,0,0,1-5.185-3.977,17.361,17.361,0,0,1-3.049-5.587,19.965,19.965,0,0,1-1.005-6.245V694.38a19.68,19.68,0,0,1,1.038-6.365,17.057,17.057,0,0,1,3.109-5.56,14.937,14.937,0,0,1,5.152-3.942,16.671,16.671,0,0,1,7.225-1.459,17.028,17.028,0,0,1,7.531,1.612,13.225,13.225,0,0,1,7.591,11.43h-6.891a7.546,7.546,0,0,0-2.468-4.722,8.214,8.214,0,0,0-5.763-1.924,8.741,8.741,0,0,0-5.241,1.49,9,9,0,0,0-3.113,4.07,15.789,15.789,0,0,0-1.034,5.929,16.093,16.093,0,0,0,1.005,5.837,8.712,8.712,0,0,0,3.109,4.1,9,9,0,0,0,5.336,1.494,9.519,9.519,0,0,0,4.3-.9,7.83,7.83,0,0,0,2.9-2.425,6.987,6.987,0,0,0,1.279-3.508h6.951a12.894,12.894,0,0,1-2.255,6.986,13.981,13.981,0,0,1-5.486,4.6,17.515,17.515,0,0,1-7.684,1.645" fill="#fff"/>
      <path id="Path_4433" data-name="Path 4433" d="M1227.164,712.765a18.682,18.682,0,0,1-7.622-1.459,16.476,16.476,0,0,1-8.963-9.378,17.89,17.89,0,0,1-1.16-6.367v-1.243a17.806,17.806,0,0,1,1.19-6.4,17.056,17.056,0,0,1,3.475-5.56,16.56,16.56,0,0,1,5.581-3.882,18.7,18.7,0,0,1,7.5-1.426,18.477,18.477,0,0,1,7.469,1.426,16.961,16.961,0,0,1,5.579,3.882,16.72,16.72,0,0,1,3.5,5.56,17.729,17.729,0,0,1,1.191,6.4v1.243a17.969,17.969,0,0,1-1.158,6.367,16.476,16.476,0,0,1-8.963,9.378,18.693,18.693,0,0,1-7.622,1.459m0-6.334a10.413,10.413,0,0,0,5.73-1.521,9.857,9.857,0,0,0,3.63-4.134,13.342,13.342,0,0,0,1.25-5.837,13.2,13.2,0,0,0-1.283-5.9,10.03,10.03,0,0,0-3.658-4.128,11.329,11.329,0,0,0-11.34,0,10,10,0,0,0-3.658,4.128,13.2,13.2,0,0,0-1.283,5.9,13.342,13.342,0,0,0,1.25,5.837,9.832,9.832,0,0,0,3.63,4.134,10.409,10.409,0,0,0,5.73,1.521" fill="#fff"/>
      <path id="Path_4434" data-name="Path 4434" d="M1261.669,712.765q-6.644,0-10.335-2.856a9.918,9.918,0,0,1-3.873-7.89h6.586a4.971,4.971,0,0,0,1.892,3.416q1.768,1.556,5.792,1.554a9.2,9.2,0,0,0,5.364-1.368,4.051,4.051,0,0,0,1.952-3.416,3.5,3.5,0,0,0-1.432-2.947,10.094,10.094,0,0,0-4.848-1.464l-3.231-.307a14.651,14.651,0,0,1-8.018-3.046,8.3,8.3,0,0,1-2.959-6.708,9.458,9.458,0,0,1,1.646-5.651,10.549,10.549,0,0,1,4.545-3.54,16.823,16.823,0,0,1,6.676-1.243,15.594,15.594,0,0,1,9.45,2.64,9.282,9.282,0,0,1,3.722,7.733h-6.526a4.354,4.354,0,0,0-1.766-3.23,7.762,7.762,0,0,0-4.88-1.3,7.532,7.532,0,0,0-4.663,1.24,3.837,3.837,0,0,0-1.616,3.168,3.34,3.34,0,0,0,1.217,2.735,7.744,7.744,0,0,0,3.964,1.3l3.231.31a17.357,17.357,0,0,1,8.812,3.139,8.324,8.324,0,0,1,3.264,6.986,9.348,9.348,0,0,1-1.77,5.655,11.477,11.477,0,0,1-4.909,3.756,18.517,18.517,0,0,1-7.285,1.335" fill="#fff"/>
      <path id="Path_4435" data-name="Path 4435" d="M1287.1,710.9l-11.16-32.731h7.258l10.671,32.731Zm-8.352,13.851v-6.4h5.426a9.917,9.917,0,0,0,3.233-.467,4.506,4.506,0,0,0,2.193-1.614,9.554,9.554,0,0,0,1.4-3.075l9.573-35.028h6.891L1297.1,714.94a15.85,15.85,0,0,1-2.715,5.651,9.987,9.987,0,0,1-4.388,3.168,18.26,18.26,0,0,1-6.375,1ZM1288.863,705h7.073v5.9h-7.073Z" fill="#fff"/>
      <path id="Path_4436" data-name="Path 4436" d="M1322.3,712.765q-6.644,0-10.335-2.856a9.917,9.917,0,0,1-3.873-7.89h6.586a4.971,4.971,0,0,0,1.892,3.416q1.768,1.556,5.792,1.554a9.2,9.2,0,0,0,5.364-1.368,4.053,4.053,0,0,0,1.954-3.416,3.506,3.506,0,0,0-1.434-2.947,10.094,10.094,0,0,0-4.847-1.464l-3.231-.307a14.652,14.652,0,0,1-8.018-3.046,8.3,8.3,0,0,1-2.959-6.708,9.436,9.436,0,0,1,1.649-5.651,10.517,10.517,0,0,1,4.541-3.54,16.822,16.822,0,0,1,6.675-1.243,15.594,15.594,0,0,1,9.45,2.64,9.281,9.281,0,0,1,3.72,7.733H1328.7a4.353,4.353,0,0,0-1.766-3.23,7.766,7.766,0,0,0-4.88-1.3,7.533,7.533,0,0,0-4.663,1.24,3.828,3.828,0,0,0-1.616,3.168,3.332,3.332,0,0,0,1.221,2.735,7.71,7.71,0,0,0,3.961,1.3l3.231.31a17.357,17.357,0,0,1,8.812,3.139,8.324,8.324,0,0,1,3.264,6.986,9.349,9.349,0,0,1-1.77,5.655,11.471,11.471,0,0,1-4.908,3.756,18.521,18.521,0,0,1-7.287,1.335" fill="#fff"/>
      <path id="Path_4437" data-name="Path 4437" d="M1337.388,678.915h22.927v5.4h-22.927Zm17.987,33.851a18.642,18.642,0,0,1-6.891-1.119,8,8,0,0,1-4.236-3.851,16.025,16.025,0,0,1-1.434-7.391v-31.24h6.768v31.86a5.476,5.476,0,0,0,1.372,4.008,5.2,5.2,0,0,0,3.875,1.4h5.486v6.334Z" fill="#fff"/>
      <path id="Path_4438" data-name="Path 4438" d="M1364.278,712.765V679.289h5.67V693.7h-.67a24.5,24.5,0,0,1,1.251-8.386,9.945,9.945,0,0,1,10.089-7.019h.3a9.961,9.961,0,0,1,10.151,7.019,24.5,24.5,0,0,1,1.253,8.386h-1.954a24.011,24.011,0,0,1,1.283-8.386,10.1,10.1,0,0,1,10.184-7.019h.3a10.106,10.106,0,0,1,10.244,7.019,24.063,24.063,0,0,1,1.279,8.386v19.066h-7.135V692.642a8.369,8.369,0,0,0-1.8-5.713,6.262,6.262,0,0,0-4.97-2.051,6.75,6.75,0,0,0-5.242,2.142,8.482,8.482,0,0,0-1.954,5.932v19.813h-7.192V692.642a8.454,8.454,0,0,0-1.771-5.713,6.17,6.17,0,0,0-4.937-2.051,6.846,6.846,0,0,0-5.274,2.142,8.392,8.392,0,0,0-1.981,5.932v19.813Z" fill="#fff"/>
      <path id="Path_4439" data-name="Path 4439" d="M1420.053,706.291v-.478a6.356,6.356,0,1,1,12.71,0v.478a6.356,6.356,0,1,1-12.71,0" fill="#82decf"/>
      <path id="Path_4440" data-name="Path 4440" d="M1412.121,688.243a19.2,19.2,0,0,1,1.186,7.185v16.347" fill="#fff"/>
      <path id="Path_4441" data-name="Path 4441" d="M1320.637,732.41a5.5,5.5,0,0,1-2.352-.458,4.469,4.469,0,0,1-1.589-1.2,4.747,4.747,0,0,1-.89-1.609,5.419,5.419,0,0,1-.283-1.689V727.2a5.687,5.687,0,0,1,.288-1.771,4.651,4.651,0,0,1,.9-1.6,4.383,4.383,0,0,1,1.565-1.148,5.511,5.511,0,0,1,2.264-.429,5.43,5.43,0,0,1,2.281.438,3.778,3.778,0,0,1,1.54,1.223,3.84,3.84,0,0,1,.7,1.862h-1.082a2.753,2.753,0,0,0-.588-1.437,2.986,2.986,0,0,0-1.219-.869,4.421,4.421,0,0,0-1.635-.292,4.2,4.2,0,0,0-1.709.325,3.411,3.411,0,0,0-1.23.9,3.937,3.937,0,0,0-.742,1.326,5.1,5.1,0,0,0-.009,3.148,3.91,3.91,0,0,0,.752,1.331,3.5,3.5,0,0,0,1.266.926,4.288,4.288,0,0,0,1.77.338,4.012,4.012,0,0,0,2.361-.668,2.844,2.844,0,0,0,1.179-1.926h1.084a4.162,4.162,0,0,1-.73,1.8,3.984,3.984,0,0,1-1.551,1.264,5.416,5.416,0,0,1-2.342.464" fill="#82decf"/>
      <path id="Path_4442" data-name="Path 4442" d="M1331.921,732.41a5.537,5.537,0,0,1-2.319-.449,4.737,4.737,0,0,1-1.629-1.194,5.179,5.179,0,0,1-.971-1.616,4.977,4.977,0,0,1-.325-1.711V727.2a5,5,0,0,1,.332-1.771,4.834,4.834,0,0,1,2.636-2.744,6.27,6.27,0,0,1,4.559,0,4.855,4.855,0,0,1,2.627,2.744,5.037,5.037,0,0,1,.332,1.771v.252a4.906,4.906,0,0,1-.319,1.7,5.011,5.011,0,0,1-.969,1.609,4.818,4.818,0,0,1-1.636,1.194,5.537,5.537,0,0,1-2.319.449m0-.929a4.334,4.334,0,0,0,1.757-.338,3.753,3.753,0,0,0,1.308-.926,4.161,4.161,0,0,0,.812-1.331,4.3,4.3,0,0,0,.283-1.552,4.385,4.385,0,0,0-.283-1.589,3.843,3.843,0,0,0-2.136-2.226,4.667,4.667,0,0,0-3.468,0,3.831,3.831,0,0,0-1.313.906,4,4,0,0,0-.83,1.32,4.349,4.349,0,0,0-.288,1.589,4.3,4.3,0,0,0,.283,1.552,4.126,4.126,0,0,0,.812,1.331,3.714,3.714,0,0,0,1.315.926,4.341,4.341,0,0,0,1.75.338" fill="#82decf"/>
    </g>
    <path id="Path_4443" data-name="Path 4443" d="M1347.179,722.509v8.759h-.168l-5.621-8.759h-1.782v9.675h1.013v-8.759h.166l5.623,8.759h1.8v-9.675Z" fill="#82decf"/>
    <g id="Group_347" data-name="Group 347">
      <path id="Path_4444" data-name="Path 4444" d="M1354.7,732.41a5.45,5.45,0,0,1-2.178-.389,3.039,3.039,0,0,1-1.343-1.086,2.83,2.83,0,0,1-.456-1.57h1.069a1.927,1.927,0,0,0,1.215,1.819,4.039,4.039,0,0,0,1.693.3,4.265,4.265,0,0,0,1.609-.261,2.094,2.094,0,0,0,.954-.718,1.713,1.713,0,0,0,.317-1.008,1.448,1.448,0,0,0-.584-1.17,3.127,3.127,0,0,0-1.748-.562l-1.182-.109a3.562,3.562,0,0,1-2.1-.774,2.218,2.218,0,0,1-.783-1.771,2.585,2.585,0,0,1,.423-1.468,2.865,2.865,0,0,1,1.2-1.008,4.327,4.327,0,0,1,1.875-.371,4.409,4.409,0,0,1,1.9.376,2.868,2.868,0,0,1,1.215,1.041,2.818,2.818,0,0,1,.42,1.537h-1.065a2.078,2.078,0,0,0-.254-.993,1.864,1.864,0,0,0-.8-.75,3.075,3.075,0,0,0-1.419-.285,3.147,3.147,0,0,0-1.372.265,1.859,1.859,0,0,0-.8.7,1.84,1.84,0,0,0-.259.951,1.441,1.441,0,0,0,.491,1.1,2.288,2.288,0,0,0,1.421.517l1.178.106a4.943,4.943,0,0,1,1.779.431,2.787,2.787,0,0,1,1.131.913,2.253,2.253,0,0,1,.392,1.318,2.486,2.486,0,0,1-.485,1.512,3.144,3.144,0,0,1-1.368,1.033,5.414,5.414,0,0,1-2.094.371" fill="#82decf"/>
      <path id="Path_4445" data-name="Path 4445" d="M1365.2,732.41a4.813,4.813,0,0,1-2.332-.5,3.273,3.273,0,0,1-1.392-1.41,4.548,4.548,0,0,1-.462-2.089v-5.9h1.065v6.014a3.326,3.326,0,0,0,.345,1.55,2.433,2.433,0,0,0,1.04,1.035,3.644,3.644,0,0,0,1.735.369,3.6,3.6,0,0,0,1.715-.363,2.415,2.415,0,0,0,1.042-1.034,3.3,3.3,0,0,0,.35-1.557v-6.014h1.065v5.9a4.548,4.548,0,0,1-.462,2.089,3.276,3.276,0,0,1-1.385,1.41,4.786,4.786,0,0,1-2.326.5" fill="#82decf"/>
    </g>
    <path id="Path_4446" data-name="Path 4446" d="M1372.377,722.509v9.675h5.6v-.915h-4.532v-8.761Z" fill="#82decf"/>
    <path id="Path_4447" data-name="Path 4447" d="M1377.854,722.509v.917h3.207v8.759h1.069v-8.759h3.2v-.917Z" fill="#82decf"/>
    <rect id="Rectangle_242" data-name="Rectangle 242" width="1.067" height="9.675" transform="translate(1387.357 722.51)" fill="#82decf"/>
    <path id="Path_4448" data-name="Path 4448" d="M1399.229,722.509v8.759h-.17l-5.619-8.759h-1.786v9.675h1.012v-8.759h.17l5.619,8.759h1.8v-9.675Z" fill="#82decf"/>
    <g id="Group_348" data-name="Group 348">
      <path id="Path_4449" data-name="Path 4449" d="M1407.941,732.41a5.918,5.918,0,0,1-2.242-.4,4.633,4.633,0,0,1-1.635-1.092,4.723,4.723,0,0,1-1.005-1.607,5.312,5.312,0,0,1-.345-1.915v-.239a5.03,5.03,0,0,1,1.292-3.38,4.575,4.575,0,0,1,1.575-1.112,5.792,5.792,0,0,1,4.357.033,4.04,4.04,0,0,1,1.567,1.24,3.546,3.546,0,0,1,.693,1.842h-1.082a2.72,2.72,0,0,0-.6-1.43,2.986,2.986,0,0,0-1.213-.876,4.491,4.491,0,0,0-3.22.013,3.478,3.478,0,0,0-1.237.864,3.968,3.968,0,0,0-.777,1.305,4.721,4.721,0,0,0-.276,1.636,5.022,5.022,0,0,0,.283,1.714,3.7,3.7,0,0,0,.816,1.331,3.573,3.573,0,0,0,1.3.864,4.675,4.675,0,0,0,1.75.3,4.822,4.822,0,0,0,2.127-.445,3.58,3.58,0,0,0,1.429-1.17l-.423,1.243v-2.859h1.013v2.41a4.484,4.484,0,0,1-1.717,1.263,6.027,6.027,0,0,1-2.428.458m-.378-4.771H1413v.847h-5.439Z" fill="#82decf"/>
    </g>
  </g>
</svg>
