<svg id="Vector_Smart_Object" data-name="Vector Smart Object" xmlns="http://www.w3.org/2000/svg" xmlns:xlink="http://www.w3.org/1999/xlink" width="150" height="34" viewBox="0 0 150 34">
  <defs>
    <clipPath id="clip-path">
      <rect id="Rectangle_272" data-name="Rectangle 272" width="150" height="34" fill="none"/>
    </clipPath>
  </defs>
  <g id="Group_365" data-name="Group 365">
    <g id="Group_364" data-name="Group 364" clip-path="url(#clip-path)">
      <path id="Path_4478" data-name="Path 4478" d="M122.128,10.2a7.387,7.387,0,0,1,.823,3.409l.081,1.7V27.2l.083,1.7a5.2,5.2,0,0,0,4.978,5.012l1.679.084V15.306l.083-1.7a7.5,7.5,0,0,1,.837-3.424,6.71,6.71,0,0,1,11.662.021,7.537,7.537,0,0,1,.821,3.4l.083,1.7V27.2l.083,1.7a5.178,5.178,0,0,0,4.978,5.012L150,34V13.605A13.544,13.544,0,0,0,136.52,0a13.4,13.4,0,0,0-10.114,4.607A13.417,13.417,0,0,0,116.293,0a13.267,13.267,0,0,0-7.549,2.336C107.431.86,104.493,0,102.807,0V34l1.687-.084a5.1,5.1,0,0,0,4.969-5.012l.09-1.7V15.306l.083-1.7a7.507,7.507,0,0,1,.823-3.416,6.715,6.715,0,0,1,11.669.007M6.741,33.918,8.427,34h25.28l-.083-1.7a5.24,5.24,0,0,0-4.971-5.019L26.966,27.2H11.8L32.02,6.8l-.083-1.694A5.119,5.119,0,0,0,26.966.086L25.28.009,0,0,.083,1.7A5.249,5.249,0,0,0,5.052,6.717L6.741,6.8H21.907L1.686,27.2l.083,1.7a5.167,5.167,0,0,0,4.971,5.012ZM96.19,4.978a17.1,17.1,0,0,1,0,24.039l0,0a16.763,16.763,0,0,1-23.841,0,17.105,17.105,0,0,1,0-24.042,16.759,16.759,0,0,1,23.841,0ZM91.421,9.792a10.267,10.267,0,0,1,0,14.426,10.056,10.056,0,0,1-14.3,0,10.267,10.267,0,0,1,0-14.426,10.056,10.056,0,0,1,14.3,0M48.887,0A16.771,16.771,0,0,1,60.8,4.98a17.1,17.1,0,0,1,0,24.04,16.763,16.763,0,0,1-23.841,0,17.105,17.105,0,0,1,0-24.042A16.77,16.77,0,0,1,48.866,0Zm7.141,9.789a10.267,10.267,0,0,1,0,14.428,10.056,10.056,0,0,1-14.3,0,10.267,10.267,0,0,1,0-14.426,10.056,10.056,0,0,1,14.3,0Z" fill="#2d8cff" fill-rule="evenodd"/>
    </g>
  </g>
</svg>
